<svg xmlns="http://www.w3.org/2000/svg" xmlns:xlink="http://www.w3.org/1999/xlink" width="575.68" height="561" viewBox="0 0 575.68 561">
  <defs>
    <clipPath id="clip-path">
      <rect id="Rectangle_1613" data-name="Rectangle 1613" width="575.68" height="525.348" fill="#fff"/>
    </clipPath>
    <filter id="Union_73" x="132.826" y="83" width="199.514" height="108.262" filterUnits="userSpaceOnUse">
      <feOffset dy="10" input="SourceAlpha"/>
      <feGaussianBlur stdDeviation="10" result="blur"/>
      <feFlood flood-opacity="0.102"/>
      <feComposite operator="in" in2="blur"/>
      <feComposite in="SourceGraphic"/>
    </filter>
  </defs>
  <g id="Group_1106" data-name="Group 1106" transform="translate(-597.16 -6641.5)">
    <g id="Group_1103" data-name="Group 1103" transform="translate(597.16 6641.5)">
      <g id="Group_1097" data-name="Group 1097" transform="translate(11)" opacity="0.38">
        <path id="Path_887" data-name="Path 887" d="M186.126,0C288.921,0,372.252,10.563,372.252,23.594S288.921,47.187,186.126,47.187,0,36.624,0,23.594,83.331,0,186.126,0Z" transform="translate(90.18 513.813)" fill="#f0f0f0"/>
      </g>
      <g id="Group_1102" data-name="Group 1102" clip-path="url(#clip-path)">
        <path id="Path_772" data-name="Path 772" d="M401.447,253.111l-15.012,29.052s-26.258-14.539-30.024-14.539-21.59.464-13.127,4.228c0,0-3.748,2.346.464,3.272,0,0-3.747,3.273.928,3.745l10.909-.478s21.59,19.7,32.372,22.506,28-33.741,28-33.741Z" fill="#965450"/>
        <path id="Path_773" data-name="Path 773" d="M403.895,273.98c2.375.845,4.776,1.719,7.205,2.536,2.948-5.293,4.886-9.329,4.886-9.329l-14.548-14.076-8.187,15.932A56.235,56.235,0,0,0,403.895,273.98Z" fill="#76413b"/>
        <path id="Path_774" data-name="Path 774" d="M420.191,239.036s-14.083-2.347-19.106,5.156a62.473,62.473,0,0,0-7.507,19.695l20.17,9.847Z" fill="#ffa65b"/>
        <path id="Path_775" data-name="Path 775" d="M412.495,265.662a65.5,65.5,0,0,1-14.9-15.141,74.349,74.349,0,0,0-4.122,13.368l20.171,9.848,1.2-6.357C414.023,266.806,413.232,266.234,412.495,265.662Z" fill="#161826" opacity="0.1"/>
        <path id="Path_776" data-name="Path 776" d="M147.98,223.158c0-10.91.9-25.369.9-25.369l-21.564-5.946s.71,19.558,1.337,31.453a150.29,150.29,0,0,0-20.935,9.6l40.7,10.311,14.467-14.021a111.118,111.118,0,0,0-14.9-6.034Z" fill="#ffb39f"/>
        <path id="Path_777" data-name="Path 777" d="M147.98,223.158c0-10.91.9-25.369.9-25.369l-21.564-5.946s.71,19.558,1.337,31.453a150.29,150.29,0,0,0-20.935,9.6l40.7,10.311,19.107-16.559S155.649,222.176,147.98,223.158Z" fill="#bc7263"/>
        <path id="Path_778" data-name="Path 778" d="M126.436,487.089s-1.966,31.7-3.712,32.3c-6.552,2.288-56,14.841-9.227-6.242L112.215,490.1Z" fill="#051f38"/>
        <path id="Path_779" data-name="Path 779" d="M124.368,511.64c1.147-9.548,2.082-24.551,2.082-24.551l-14.193,3,1.147,20.542a43.513,43.513,0,0,0,10.973,1.009Z" fill="#041523"/>
        <path id="Path_780" data-name="Path 780" d="M93.662,524.135c-1.42,3.537,24.565-3.165,29.068-4.773a2.282,2.282,0,0,0,.416-.683C117.3,520.317,99.668,524.326,93.662,524.135Z" fill="#fff"/>
        <path id="Path_781" data-name="Path 781" d="M156.659,485.4s2.729,31.645,4.4,32.217c6.6,2.155,56.308,13.641,9.089-6.41l.791-23.079Z" fill="#051f38"/>
        <path id="Path_782" data-name="Path 782" d="M159.253,509.949c-1.337-9.521-2.594-24.552-2.594-24.552l14.275,2.728-.71,20.569A43.458,43.458,0,0,1,159.253,509.949Z" fill="#041523"/>
        <path id="Path_783" data-name="Path 783" d="M190.205,521.8c1.5,3.518-24.565-2.728-29.178-4.2a2.288,2.288,0,0,1-.417-.682C166.487,518.434,184.226,522.116,190.205,521.8Z" fill="#fff"/>
        <path id="Path_784" data-name="Path 784" d="M165.338,314.409s12.884,104.344,10.372,188.776c0,0-15.422,4.338-19.488,1.173-3.493-20.024-3.029-58.9-8.188-87.867-4.913-27.279-6.87-49.567-6.87-49.567l-1.638-1.8s-10.59,131.9-12.907,141.854c-13.376,3.164-17.606-.545-17.606-.545s-6.114-164.961-2.375-191.585C111.545,280.01,165.338,314.409,165.338,314.409Z" fill="#ffa65b"/>
        <path id="Path_785" data-name="Path 785" d="M167.74,335.96c-1.392-13.476-2.375-21.551-2.375-21.551s-53.881-34.4-58.765.491c-.464,3.246-.764,8.512-.955,15.276C109.548,332.413,159.961,339.589,167.74,335.96Z" fill="#161826" opacity="0.1"/>
        <path id="Path_786" data-name="Path 786" d="M140.063,364c.6,7.074,3.876,30.007,7.942,52.486,5.24,28.971,4.749,67.845,8.188,87.867,4.068,3.165,19.487-1.173,19.487-1.173,1.556-51.831-2.729-111.383-6.245-149.467C160.889,359.011,150.027,361.656,140.063,364Z" fill="#161826" opacity="0.25"/>
        <path id="Path_787" data-name="Path 787" d="M155.4,222.859s22.983-2.455,25.985,15.168,2.729,22.423,2.729,22.423l-22.436-3.3Z" fill="#0a3b77"/>
        <path id="Path_788" data-name="Path 788" d="M174.839,237.153c-1.336-11.213-12.773-13.641-19.433-14.213a16.081,16.081,0,0,1-12.8,7.282,17.228,17.228,0,0,1-15.5-6.955c-10.072,1.173-20.035,4.092-22.3,10.913-4.776,14.356-.6,93.3-.6,93.3s40.233,6.866,73.231.6C177.458,327.966,176.613,252.021,174.839,237.153Z" fill="#0a3b77"/>
        <path id="Path_789" data-name="Path 789" d="M102.532,272.343c.138,26.051,1.693,55.022,1.693,55.022s40.233,6.866,73.231.6c0,0-.624-57.723-1.965-82.439Q139.053,258.977,102.532,272.343Z" fill="#352c38" opacity="0.2"/>
        <path id="Path_790" data-name="Path 790" d="M290.539,442.049A126.577,126.577,0,1,0,163.891,315.472,126.612,126.612,0,0,0,290.539,442.049Z" fill="#00bcc5"/>
        <path id="Path_791" data-name="Path 791" d="M386.945,338.334a46.909,46.909,0,0,0-18.478.874c-3.248,1.009-6.741,3.356-6.633,6.766,0,1.964,1.337,3.745,1.474,5.7a6.9,6.9,0,0,1-5.05,6.356,24.093,24.093,0,0,1-8.679.573,82.249,82.249,0,0,0-29.314,4.254c-3.955,1.336-8.489,3.9-8.46,8.184a7.038,7.038,0,0,0,3.6,5.7,16.182,16.182,0,0,0,6.714,1.911,26.029,26.029,0,0,1,7.1,1.248,6.524,6.524,0,0,1,4.341,5.293c.164,3.356-3.3,5.838-6.633,6.356s-6.741-.137-10.045.354-6.851,2.728-6.8,6.219c0,3.82,4.476,6.034,8.188,6.242,5.458.3,10.917-1.61,16.377-2.156s11.929.818,14.631,5.647c1.228,2.156,1.8,5.048,4.1,6s5.459-1.309,7.888-2.728c3.985-2.081,8.6-1.581,13.184-1.04a126.341,126.341,0,0,0,40.943-74.9,25.151,25.151,0,0,1-10.126,3.683,76.933,76.933,0,0,1-18.32-.545Z" fill="#00afb6"/>
        <path id="Path_792" data-name="Path 792" d="M274.466,433.238c-2.319-4.12-9.635-3.629-11.163-8.183-1.147-3.356,2.019-6.521,4.94-8.485s6.414-4.419,6.246-7.938-4.476-5.919-8.188-6.219a46.629,46.629,0,0,0-13.457,1.8,29.188,29.188,0,0,1-13.484.6,11.35,11.35,0,0,1-8.87-9.192c-.273-3.246,1.309-6.383,1.228-9.629,0-5.237-4.667-9.494-9.634-11.156a45.426,45.426,0,0,0-15.587-1.147,29.881,29.881,0,0,1-15.311-2.536c-4.58-2.536-7.888-8.183-6.142-13.066a30.767,30.767,0,0,1,4.832-7.012,7.5,7.5,0,0,0,1.249-7.965c-2.211-3.537-8.535-3.219-9.826-7.2a5.809,5.809,0,0,1,1.965-5.647c2.73-2.728,6.906-4.119,7.478-8.374a4.281,4.281,0,0,0-3.056-5.183,42.794,42.794,0,0,0-8.6-.982l-1.938-.3H163.92A126.627,126.627,0,0,0,273.1,440.9a6.847,6.847,0,0,0,1.366-7.663Z" fill="#00afb6"/>
        <path id="Path_793" data-name="Path 793" d="M309.865,256.249a19.915,19.915,0,0,0-6.142,5.455,9.6,9.6,0,0,0-1.474,7.965c1.064,3.41,4.53,6.383,3.577,9.821-.683,2.482-3.412,3.745-5.815,4.691l-15.5,6.034a24.589,24.589,0,0,0-6.87,3.537,8.353,8.353,0,0,0-3.358,6.683c.246,4.01,4.372,6.794,8.328,7.339a62.8,62.8,0,0,0,11.982-.656,12.642,12.642,0,0,1,6.96,1.249,5.918,5.918,0,0,1,3.139,5.946c-.437,2.289-2.483,3.82-4.149,5.456s-3.056,4.146-1.938,6.191,4.559,2.129,7.078,1.474c6.96-1.746,14.329-4.746,21.045-2.237,5.021,1.872,8.49,6.491,13.157,9.138a25.26,25.26,0,0,0,18.288,1.8,72.237,72.237,0,0,0,17.223-7.447,33.22,33.22,0,0,0,11.573-8.757,11.537,11.537,0,0,0,.683-13.641c-2.73-3.246-7.1-4.065-10.919-5.593s-7.888-4.993-6.987-9.057c.737-3.329,4.284-5.047,7.2-6.82a15.715,15.715,0,0,0,5.977-5.674,7.85,7.85,0,0,0,0-7.937c-1.992-2.974-6.037-3.629-9.607-3.875s-7.561-.572-9.935-3.245c-1.719-1.937-2.319-4.528-4.176-6.357a27.13,27.13,0,0,0-6.279-3.982,32.182,32.182,0,0,0-10.152-3.437A45.873,45.873,0,0,0,309.865,256.249Z" fill="#00afb6"/>
        <path id="Path_794" data-name="Path 794" d="M358.743,359.64V359.5a1.464,1.464,0,0,0-.737-.416.6.6,0,0,0-.273-.191,3.862,3.862,0,0,1-.572-.354,3.771,3.771,0,0,1-.519-.272.984.984,0,0,0-1.2-.112,1,1,0,0,0-.3.3,1.856,1.856,0,0,0,.6,2.374,4.138,4.138,0,0,0,1.041.545,1.281,1.281,0,0,1,.572.354,1.148,1.148,0,0,0,1.774-.208,1.525,1.525,0,0,0,0-1.555Z" fill="#008e95"/>
        <path id="Path_795" data-name="Path 795" d="M364.668,362.638a1.042,1.042,0,0,0-1.153-.625,1.06,1.06,0,0,0-.429.188h-.165a1.116,1.116,0,0,0-.548.813,1.125,1.125,0,0,0,.3.933,1.669,1.669,0,0,0,.417.624,1.829,1.829,0,0,0,2.29.164,1.166,1.166,0,0,0,.381-.362,1.179,1.179,0,0,0,.185-.492,1.177,1.177,0,0,0-.321-.973,1.091,1.091,0,0,0-.955-.272Z" fill="#008e95"/>
        <path id="Path_796" data-name="Path 796" d="M369.069,369.215a1.364,1.364,0,0,1-.354-.683.6.6,0,0,0-1.174.192,4.134,4.134,0,0,0,0,.817,2.991,2.991,0,0,0,0,.354v.165a.955.955,0,0,0,1.432.844.946.946,0,0,0,.352-.353.957.957,0,0,0,.127-.482.967.967,0,0,0-.134-.48.954.954,0,0,0-.358-.347Z" fill="#008e95"/>
        <path id="Path_797" data-name="Path 797" d="M347.314,355.383a.623.623,0,0,0-.464.464.706.706,0,0,0,.064.538.714.714,0,0,0,.427.336.848.848,0,0,0,.9-.273.763.763,0,0,0,0-.955.682.682,0,0,0-.928-.11Z" fill="#008e95"/>
        <path id="Path_798" data-name="Path 798" d="M324.031,258.517a14.219,14.219,0,0,1,2.1.518l.71.383a2.134,2.134,0,0,1,.791,1.527,3.257,3.257,0,0,0,.928,2.865c.929.79,4.341.874,4.668-1.12a2.724,2.724,0,0,0-.384-1.855.645.645,0,0,0,0-.354c-.3-2.728-3.193-2.728-4.885-4.282a4.15,4.15,0,0,1-1.2-2.018,3.165,3.165,0,0,0-.624-1.282,4.748,4.748,0,0,0-3.112-1.119c-1.747,0-4.749.9-4.968,3S322.284,258.132,324.031,258.517Z" fill="#008e95"/>
        <path id="Path_799" data-name="Path 799" d="M314.232,251.476a1.362,1.362,0,0,0,.818-.327,1.2,1.2,0,0,0,.519,0,1.126,1.126,0,0,0,.489-.187,1.142,1.142,0,0,0,.356-.385,1.229,1.229,0,0,0,0-1.173,1.911,1.911,0,0,0-1.693-1.064,1.64,1.64,0,0,0-1.582,1.249,1.723,1.723,0,0,0,0,.955,1.229,1.229,0,0,0,1.093.932Z" fill="#008e95"/>
        <path id="Path_800" data-name="Path 800" d="M315.487,244.327h.3a.958.958,0,0,0,.761-.371.956.956,0,0,0,.181-.395.969.969,0,0,0-.013-.435,1.337,1.337,0,0,0-1.337-1.04.832.832,0,0,0-.845.845c.011.227.011.455,0,.682a.784.784,0,0,0,.1.32.768.768,0,0,0,.22.251.78.78,0,0,0,.3.139.822.822,0,0,0,.335,0Z" fill="#008e95"/>
        <path id="Path_801" data-name="Path 801" d="M318.19,264.6a1.5,1.5,0,0,0,.545-.491.851.851,0,0,0-1.282-1.063,1.138,1.138,0,0,0-.3.437.776.776,0,0,0,1.041,1.119Z" fill="#008e95"/>
        <path id="Path_802" data-name="Path 802" d="M324.085,266.914a.9.9,0,0,0,.937-.437.89.89,0,0,0,.117-.529.9.9,0,1,0-1.054.966Z" fill="#008e95"/>
        <path id="Path_803" data-name="Path 803" d="M317.582,310.807A1,1,0,0,0,316.6,312a1,1,0,0,0,1.359.727,1,1,0,0,0,.54-1.3,1,1,0,0,0-.54-.539A1,1,0,0,0,317.582,310.807Z" fill="#008e95"/>
        <path id="Path_804" data-name="Path 804" d="M316.254,316.7a.874.874,0,0,0-.846-1.446H315.2a.818.818,0,0,0,0,1.581h.208a.872.872,0,0,0,.441.043A.881.881,0,0,0,316.254,316.7Z" fill="#008e95"/>
        <path id="Path_805" data-name="Path 805" d="M316.251,320.274a.682.682,0,1,0,.548.668.685.685,0,0,0-.548-.668Z" fill="#008e95"/>
        <path id="Path_806" data-name="Path 806" d="M416.725,304.561a125.918,125.918,0,0,0-27.294-68.2l-6.579-2.128a12.578,12.578,0,0,0-4.613-.874A20.4,20.4,0,0,0,371.5,230.3a13.1,13.1,0,0,1-6.714-2.482,18.017,18.017,0,0,0-5.458-3.9,23.7,23.7,0,0,0-6.2-1.446,13.816,13.816,0,0,0-6.8,0,15.247,15.247,0,0,0-2.564,1.637,9.653,9.653,0,0,1-3,1.041,5.7,5.7,0,0,0-3.577,3.164c-.656,1.336-.983,2.728-1.555,4.2a5.65,5.65,0,0,1-5.021,3.464,12.884,12.884,0,0,0-9.908,6.411c-.655,1.282-1.773,3.6-.6,4.883a2.379,2.379,0,0,0,2.1.572c1.5,0,2.947-.416,4.448-.416h1.911c1.175,0,.983.437,1.393,1.336a3.465,3.465,0,0,0,1.528,1.581c1.366.764,3.9.464,4.7,1.991.491.955.383,1.91,1.2,2.728a5.16,5.16,0,0,0,2.537,1.336,15.907,15.907,0,0,0,3.521.191,6.768,6.768,0,0,1,2.1.208c.983.327,2.32,1.582,1.474,2.728a5.487,5.487,0,0,0-1.228.818,22.885,22.885,0,0,0-5.458,2.946,54.072,54.072,0,0,0-5.267,3.82c-1.874,1.581-3.358,3.518-5.132,5.237a9.373,9.373,0,0,1-6.245,2.728c-2.211.137-4.449,0-6.662.3-3.439.572-6.741,2.728-6.662,6.575a4.911,4.911,0,0,0,1.474,3.491,4.414,4.414,0,0,0,1.874.955c.272,0,1.064,0,1.249.3a7.321,7.321,0,0,1-.464,2.728l-1.25,3.9a21.028,21.028,0,0,0-1.2,3.982c-.164,1.5.9,2.289,2.238,2.593s2.02,0,2.484,1.308c.3.818.3,1.5.982,2.129a4.349,4.349,0,0,0,3.44.9,3.952,3.952,0,0,0,.491,3.764,5.01,5.01,0,0,0,.416,1.872c.683,1.665,2.43,3.246,1.693,4.883-.437.956-1.555,1.336-2.511,1.8s-1.874,1.446-1.528,2.428,2.729,1.041,3.712,2.081.273,2.892-.71,4.066-2.184,2.482-1.828,3.953a3.2,3.2,0,0,0,3.029,2.045c1.31,0,2.729-.3,3.9-.327a8.183,8.183,0,0,1,8.187,8.4c0,1.419-.416,3.138.737,3.982a2.728,2.728,0,0,0,2.915-.137,18.237,18.237,0,0,1,2.729-1.61,3.709,3.709,0,0,1,4.284,5.673l.956.683a1.911,1.911,0,0,0,.437,1.91,6.827,6.827,0,0,0,1.874,1.119,4.069,4.069,0,0,1,1.582,2.455,5.266,5.266,0,0,0,3.193,3.111c2.047.955,4.1,1.937,6.169,2.728a6.936,6.936,0,0,0,4.559.545l5.3,2.237c1.2.518,2.914.844,3.539-.3l.71,1.554,8.187.165a11.771,11.771,0,0,0,6.714-.71,4.063,4.063,0,0,0,1.42-5.757c-.545-.6-1.337-.982-1.693-1.692-.6-1.173.192-2.536.956-3.628l.383-.518a4.45,4.45,0,0,0,3.139-.791.6.6,0,0,0,.583.475.613.613,0,0,0,.263-.059,2.014,2.014,0,0,0,1.04-1.282,3.141,3.141,0,0,0,2.73-.763,2.73,2.73,0,0,0,.874-2.318c0-1.09-.71-1.473.208-2.289a3.467,3.467,0,0,0,1.229-1.772,7.417,7.417,0,0,1,.191-1.336,3.314,3.314,0,0,1,.683-.874,8.817,8.817,0,0,0,2.729-2.592,1.283,1.283,0,0,0,0-1.419,1.528,1.528,0,0,0,.165-1.965,2.047,2.047,0,0,0-2.867-.326,1.382,1.382,0,0,0-.437.437,4.125,4.125,0,0,1-3.3-1.91c-1.249-2.32.845-4.938,2.729-6.9a10.639,10.639,0,0,0,2.73-4.5,4.636,4.636,0,0,0-.737-3.874,6.414,6.414,0,0,0,2.429-5.183,5.01,5.01,0,0,0-.273-1.419c-.137-.416-.71-1.09-.683-1.527a2.1,2.1,0,0,1,.438-1.064h5.968a7.173,7.173,0,0,0,3.275-.491,2.455,2.455,0,0,0,1.447-2.727A4.128,4.128,0,0,0,416.725,304.561Z" fill="#008e95"/>
        <path id="Path_807" data-name="Path 807" d="M174.319,322.428c3.493-3.492,6.6-8.184,11.491-8.92,2.73-.437,5.459.383,8.188.164s5.677-2.263,5.24-4.937c-.3-1.856-2.046-3.027-3.085-4.611-2.265-3.464-.519-8.4,2.729-10.913a25.366,25.366,0,0,1,11.573-4.119l28.822-5.183A26.736,26.736,0,0,0,249.7,280.5a9.109,9.109,0,0,0,4.257-9.438c-.983-3.491-4.559-5.674-5.814-9.057a10.172,10.172,0,0,1,3.849-10.911,29.834,29.834,0,0,1,11.273-4.773l33.1-8.92a26.4,26.4,0,0,0,9.662-4.036,8.972,8.972,0,0,0,3.6-9.248c-1.365-4.393-6.551-6.034-10.916-7.5s-9.335-4.578-8.844-9.138c.437-4.066,5.132-6.575,5.923-10.585a8.4,8.4,0,0,0-3.766-7.964h-1.31A126.613,126.613,0,0,0,164.072,315.5q0,5.617.492,11.13a12.833,12.833,0,0,0,9.745-4.2Z" fill="#00afb6"/>
        <path id="Path_808" data-name="Path 808" d="M311.694,361.712c-1.09-.354-2.375-1.173-2.081-2.289-1.064.764-2.594,0-3.521-.844s-1.719-2.129-2.947-2.537-1.747,0-2.73.818a1.283,1.283,0,0,1-1.473-.454,1.28,1.28,0,0,1-.219-.5,2.722,2.722,0,0,1,.656-2.129,10.191,10.191,0,0,0,1.282-1.872,3.747,3.747,0,0,0-3.112-4.746l-.165-1.336a4.536,4.536,0,0,1-4.257-.682,18.632,18.632,0,0,1-1.447-1.419,17.033,17.033,0,0,0-3.029-2.183l-2.729-1.745a41.993,41.993,0,0,0-7.7-4.066c.417.682-.545,1.473-1.336,1.365a17.881,17.881,0,0,1-2.211-.874,4.963,4.963,0,0,0-3.52.791,2.038,2.038,0,0,0-.573-.71,2.733,2.733,0,0,0-2.729,0,3.137,3.137,0,0,0-1.874,3.745,4.756,4.756,0,0,1-2.729,1.091c-.737-.138-1.366-1.5-2.13-1.773a3.637,3.637,0,0,0-2.975.137l-6.661-1.146a4.03,4.03,0,0,1,0-3.953,7.2,7.2,0,0,0,.982-3.983,6,6,0,0,0-2.594-3.273l-3.3.327V325.89a1,1,0,0,1-.379.1.983.983,0,0,1-.388-.052,1.006,1.006,0,0,1-.338-.2.976.976,0,0,1-.232-.316,2.722,2.722,0,0,1-.164-1.582l.416-4.119a3.76,3.76,0,0,0-.164-2.018,1.283,1.283,0,0,0-.283-.418,1.259,1.259,0,0,0-.421-.277,1.274,1.274,0,0,0-.5-.093,1.29,1.29,0,0,0-.493.1v-1.146a2.484,2.484,0,0,0-2.729.416,7.286,7.286,0,0,0-1.693,2.563l-1.474,3.111-3.358-.208a1.829,1.829,0,0,0-.248-1.638,1.826,1.826,0,0,0-1.471-.763,30.615,30.615,0,0,1-3.52-4.5,5.817,5.817,0,0,1-1.556-2.727,6.278,6.278,0,0,1,1.337-4.01,6.959,6.959,0,0,1,2.975-3.027,11.345,11.345,0,0,1,4.832,0c1.638,0,3.63-.624,3.793-2.264.191,1.2,1.965,1.336,3,.71s1.911-1.638,3.139-1.8a3.521,3.521,0,0,1,2.729,1.173c.764.737,1.31,1.665,2.02,2.455a8.536,8.536,0,0,0,.818.818.511.511,0,0,0,0,.3c.624.955.3,2.155.6,3.218a2.727,2.727,0,0,0,1.857,1.873,2.045,2.045,0,0,0,2.184-.845,3.886,3.886,0,0,0,.3-1.419,12.817,12.817,0,0,0,1.365-1.281l3.331-1.446c.929-1.992,2.538-3.246,3.467-5.264l.874-1.856.71-1.528,1.474-3.164c.874-1.873,1.773-3.764,2.483-5.728a7.99,7.99,0,0,0,2.975-4.746c.383-1.964-.245-3.953,0-5.919s1.639-3.848,1.555-6.034a37.619,37.619,0,0,0-1.611-5.647c-.416-2.081.437-4.174-.192-6.242a4.528,4.528,0,0,0-3.876-3.3c-1.091-.164-1.582,0-1.992-1.119a20.606,20.606,0,0,1-.6-2.237,4.89,4.89,0,0,0-5.512-4.338c-.791,0-2.73.383-2.73-.71a1.555,1.555,0,0,0-2.729-.382c-1.555,3.11-5.24,2.1-7.4.272a1.556,1.556,0,0,0-2.73,1.09,6.078,6.078,0,0,1-1.446,4.147c-1.2,1.009-2.184,0-2.73-.955a53.328,53.328,0,0,1-2.51-6.71,5.3,5.3,0,0,0-5.1-3.083,14.376,14.376,0,0,1-7.911-2.728,1.309,1.309,0,0,0-1.938.79c0-.464-.818-1.5-1.12-1.872a3.543,3.543,0,0,0-1.665-1.174,4.23,4.23,0,0,0-4.149,1.555c-1.147,1.308-1.393,3.3-2.73,4.473a8.654,8.654,0,0,1-4.775,1.365,14.417,14.417,0,0,0-4.4,1.009,17.832,17.832,0,0,0-4.178,3.086,12.172,12.172,0,0,1-4.559,2.428,4.282,4.282,0,0,0-3.029,2.973c-.464,1.719.273,3.6-.929,5.1a70.449,70.449,0,0,1-4.886,5.1c-1.555,1.555-3.22,3.055-4.667,4.692a3.461,3.461,0,0,0-.928,3.656,5.044,5.044,0,0,0,1.992,2.128c.955.683,2.729,1.228,2.1,2.728s-1.611,2.183-1.336,3.71a3.22,3.22,0,0,0,2.948,2.482,15.168,15.168,0,0,1,2.729,0c.983.164,1.528.955,2.375,1.719a3.885,3.885,0,0,0,2.184,1.04c1.12.164,1.992,0,2.538,1.119a24.834,24.834,0,0,0,1.857,4.665l.3.354a16.579,16.579,0,0,0,1.174,8.183,4.961,4.961,0,0,0,1.938,2.182,2.726,2.726,0,0,0,2.729,0,2.4,2.4,0,0,0,.3,3.055,10.21,10.21,0,0,0,2.729,1.827,14.788,14.788,0,0,1,7.22,9.933,12.279,12.279,0,0,0,.955,3.709,2.728,2.728,0,0,0,3.194,1.446l.416.764a7.56,7.56,0,0,0,3.194,3.356,15.546,15.546,0,0,0,4.559,1.147l6.222.9a13.951,13.951,0,0,1,9.035,4.093,6.9,6.9,0,0,1,2.238,2.563,12.436,12.436,0,0,0,.929,2.892,4.224,4.224,0,0,0,2.51,1.336,37.989,37.989,0,0,0,10.345,1.12l1.282,2.727c1.528,3.41-.955,7.258-3.822,9.657a11.168,11.168,0,0,0-2.729,2.727,6.767,6.767,0,0,0-.625,3.629,10.183,10.183,0,0,1-.273,3.683,2.972,2.972,0,0,1-2.729,2.155l.956,4.066c-.546.6.208,1.664.845,2.155a10.076,10.076,0,0,1,1.938,1.392,4.906,4.906,0,0,1,.464,3.329c0,1.147.208,2.536,1.31,2.946s2.594-.437,3.385.416.416,1.174.71,1.692a1.474,1.474,0,0,0,2.729-.737,4.039,4.039,0,0,0,3.166.928,1.22,1.22,0,0,1,1.229.737,4.328,4.328,0,0,1,.437,1.773l.383,3.655a3.131,3.131,0,0,1-.165,1.8c-.791,1.5-3.657,1.147-4.068,2.728-.326,1.248,1.121,2.209,1.529,3.437.572,1.719-.929,3.356-2.32,4.528s-2.947,2.727-2.483,4.473a2.32,2.32,0,0,0,1.965,1.527,5.78,5.78,0,0,0,2.729-.383l5.731-1.772c1.366-.437,2.975-1.12,3.194-2.537a3.153,3.153,0,0,0,2.538-2.128,7.9,7.9,0,0,1,1.8-2.973c1.966-1.555,4.94,0,7.316-.9a11.7,11.7,0,0,0,3.955-3.384c1.228-1.227,3.3-2.128,4.695-1.063l2.729-2.509c-.791-1.146.6-2.728,1.638-3.791s2.349-1.637,2.948-2.892a18.654,18.654,0,0,0,.737-3.192,10.06,10.06,0,0,1,3.056-4.2l7.232-6.929c-.683.208-1.309-.655-1.147-1.365a3.634,3.634,0,0,1,1.249-1.718,2.512,2.512,0,0,0,1.01-1.827C314.124,362.64,312.785,362.066,311.694,361.712Z" fill="#008e95"/>
        <path id="Path_809" data-name="Path 809" d="M264.392,322.184a1.69,1.69,0,0,0,1.528-1.554c0-1.063-1.249-1.665-2.319-1.8a5.131,5.131,0,0,1-3.029-.845,2.916,2.916,0,0,0-1.611-1.5c-1.747-.928-4.914-3.464-6.96-3.41-.983,0-2.348,1.009-2.265,2.129s1.555,1.8,2.184.736l-.416,2.892a8.331,8.331,0,0,1,8.924,1.063c.6.518,1.147,1.12,1.774,1.611a3.167,3.167,0,0,0,2.184.682Z" fill="#008e95"/>
        <path id="Path_810" data-name="Path 810" d="M267.286,323.57a6.3,6.3,0,0,0,3.793,1.04l4.694.3c.573,0,1.337,0,1.447-.624s-.246-.737-.573-1.01C274.464,321.585,268.9,320.493,267.286,323.57Z" fill="#008e95"/>
        <path id="Path_811" data-name="Path 811" d="M270.587,317.44a5,5,0,0,0-.818-.464l.818.464a1.53,1.53,0,0,1-.818-.464,1.858,1.858,0,0,0-.624-.137,1.039,1.039,0,0,0-1.12.928c0,.655.818.955,1.446,1.119l2.02.437c.464,0,1.009.165,1.309-.191a.893.893,0,0,0,.125-.332.9.9,0,0,0-.162-.677.924.924,0,0,0-.262-.24,3.138,3.138,0,0,0-1.393-.382Z" fill="#008e95"/>
        <path id="Path_812" data-name="Path 812" d="M259.887,323.63a1.175,1.175,0,0,0-.818,1.249,4.088,4.088,0,0,0,1.447,1.281,1.391,1.391,0,0,0,1.746-.437,1.363,1.363,0,0,0-.416-1.637,3.163,3.163,0,0,0-1.693-.6h.165a1.055,1.055,0,0,0-.437.137Z" fill="#008e95"/>
        <path id="Path_813" data-name="Path 813" d="M244.467,357.182a3.609,3.609,0,0,0-1.719-.464h.437a1.488,1.488,0,0,0-1.154-.027,1.473,1.473,0,0,0-.931,1.389,1.475,1.475,0,0,0,.965,1.366,2.938,2.938,0,0,0,1.5,0,1.821,1.821,0,0,0,1.365-.655,1.227,1.227,0,0,0-.464-1.611Z" fill="#008e95"/>
        <path id="Path_814" data-name="Path 814" d="M237.1,356.691a.823.823,0,0,0-.875.208.97.97,0,0,0-.15.344.954.954,0,0,0,.4.992,1.2,1.2,0,0,0,1.42-.137,1.584,1.584,0,0,0,.437-1.419Z" fill="#008e95"/>
        <path id="Path_815" data-name="Path 815" d="M239.608,353.365c-.624-.192-1.528-.246-1.774.382s.354,1.147.929,1.174a2.727,2.727,0,0,0,1.611-.6l-.491.518a.507.507,0,0,0,.177.161.493.493,0,0,0,.464,0,.507.507,0,0,0,.177-.161.787.787,0,0,0-.246-.9A2.167,2.167,0,0,0,239.608,353.365Z" fill="#008e95"/>
        <path id="Path_816" data-name="Path 816" d="M287.346,337.161h-.127a.511.511,0,0,0-.208.191,1.008,1.008,0,0,0,.3,1.228,3.274,3.274,0,0,0,1.249.545,2.425,2.425,0,0,1,1.2.624,2.73,2.73,0,0,0-1.857-2.536.651.651,0,0,0-.273-.089A.642.642,0,0,0,287.346,337.161Z" fill="#008e95"/>
        <path id="Path_817" data-name="Path 817" d="M285.955,334.187l1.874-.491a1.991,1.991,0,0,0-1.582-1.281c-.71,0-1.393.844-.983,1.446a.8.8,0,0,0,.3.252A.788.788,0,0,0,285.955,334.187Z" fill="#008e95"/>
        <path id="Path_818" data-name="Path 818" d="M264.192,312.609a.652.652,0,0,0,.364-.11.659.659,0,0,0,.242-.295.644.644,0,0,0,.037-.378.655.655,0,0,0-1.188-.236.655.655,0,0,0,.545,1.019Z" fill="#008e95"/>
        <path id="Path_819" data-name="Path 819" d="M266.028,315.2a.9.9,0,0,0-.845-.656.791.791,0,0,0-.8.621.773.773,0,0,0,.005.361.7.7,0,0,0,0,.273.871.871,0,0,0,.874.272.845.845,0,0,0,.762-.871Z" fill="#008e95"/>
        <path id="Path_820" data-name="Path 820" d="M261.663,315.609a.656.656,0,0,0,.416-.383.735.735,0,0,0,.22-.368.728.728,0,0,0-.022-.428.737.737,0,0,0-.662-.485.763.763,0,0,0-.625.354,1.01,1.01,0,0,0,0,1.009.661.661,0,0,0,.3.256.654.654,0,0,0,.388.043Z" fill="#008e95"/>
        <path id="Path_821" data-name="Path 821" d="M281.779,325.813h.192a.542.542,0,0,0,.15-.176.554.554,0,0,0,.065-.221.542.542,0,0,0-.034-.229.543.543,0,0,0-.548-.353.528.528,0,0,0-.222.065.538.538,0,0,0-.175.15v.192a.485.485,0,0,0,.135.436.492.492,0,0,0,.437.136Z" fill="#008e95"/>
        <path id="Path_822" data-name="Path 822" d="M280.085,328.732a.451.451,0,0,0,.415-.278.45.45,0,0,0,.026-.259.456.456,0,0,0-.124-.23.449.449,0,1,0-.317.767Z" fill="#008e95"/>
        <path id="Path_823" data-name="Path 823" d="M276.62,327.367a.417.417,0,0,0,.458-.168.411.411,0,0,0,.071-.245.418.418,0,0,0-.086-.241.41.41,0,0,0-.211-.145.415.415,0,0,0-.449.652A.413.413,0,0,0,276.62,327.367Z" fill="#008e95"/>
        <path id="Path_824" data-name="Path 824" d="M283.5,327.75a.624.624,0,1,0-.362-.222A.624.624,0,0,0,283.5,327.75Z" fill="#008e95"/>
        <path id="Path_825" data-name="Path 825" d="M287.156,327.941a.682.682,0,0,0,.67-.815.678.678,0,0,0-.187-.35.681.681,0,0,0-.744-.148.682.682,0,0,0,.261,1.313Z" fill="#008e95"/>
        <g id="Group_1098" data-name="Group 1098" opacity="0.15">
          <path id="Path_826" data-name="Path 826" d="M371.552,218.057A126.617,126.617,0,0,1,193.207,396.3,126.619,126.619,0,1,0,371.552,218.057Z" fill="#19746b"/>
        </g>
        <g id="Group_1099" data-name="Group 1099" opacity="0.05">
          <path id="Path_827" data-name="Path 827" d="M296.793,195.143a126.217,126.217,0,0,1,86.361,34.018,126.615,126.615,0,1,0-179,178.9,126.584,126.584,0,0,1,92.611-212.782Z" fill="#19746b"/>
        </g>
        <g id="Group_1100" data-name="Group 1100" opacity="0.3">
          <path id="Path_828" data-name="Path 828" d="M351.734,204.664A126.652,126.652,0,0,1,179.777,376.688,126.632,126.632,0,1,0,351.734,204.664Z" fill="#00bcc5"/>
        </g>
        <path id="Path_829" data-name="Path 829" d="M125.4,171.109s5.677-18.332,20.58-15.44,17.088,22.315,19.107,35.464-2.348,25.016-14.029,26.462C140.8,218.822,123.059,216.858,125.4,171.109Z" fill="#e09b8d"/>
        <path id="Path_830" data-name="Path 830" d="M126.115,186.385s-.9-2.428-4.559.246c-4.667,3.41,0,15.931,5.731,14.65S126.115,186.385,126.115,186.385Z" fill="#e09b8d"/>
        <path id="Path_831" data-name="Path 831" d="M120.956,160.552c.327,0,7.343-.655,2.73-.191,4.23,4.665,3.822,5.865,9.688,6.928,1.957,5.331.487,5.8-1.336,13.749a26.773,26.773,0,0,0,0,13.4l-4.449.464s0-8.183-3.331-8.757-4.422,3.41-4.422,3.41C112.769,180.607,105.618,162.98,120.956,160.552Z" fill="#051f38"/>
        <path id="Path_832" data-name="Path 832" d="M140.257,151.25c-9.8-.9-25.815,1.473-26.558,16.586s16.238-2.912,16.238-2.912,20.237,6.216,30.174-.417C160.182,164.505,150.054,152.123,140.257,151.25Z" fill="#051f38"/>
        <path id="Path_833" data-name="Path 833" d="M137.861,168.015v6.352s-6.65-.817-9.782,15.579c-1.072,7.624-.089-23.29-.089-23.29Z" fill="#051f38"/>
        <path id="Path_834" data-name="Path 834" d="M147.732,180.247a21.685,21.685,0,0,0-6.713-.518,12.038,12.038,0,0,0-3.056.737c-1.064.354-2.082.9-3.331,1.392a6.82,6.82,0,0,1,2.29-3.192,7.481,7.481,0,0,1,10.919,1.611Z" fill="#051f38"/>
        <path id="Path_835" data-name="Path 835" d="M162.992,179.867a14.107,14.107,0,0,0-5.05-1.365,6.859,6.859,0,0,0-2.211.353c-.819.246-1.666.625-2.73.983a5.045,5.045,0,0,1,8.244-2.809A4.743,4.743,0,0,1,162.992,179.867Z" fill="#051f38"/>
        <path id="Path_836" data-name="Path 836" d="M151.911,180.82c2.265,4.773,3.747,9.739,6.087,14.212l.354.683-.573.3a43.685,43.685,0,0,1-5.1,2.129,43.735,43.735,0,0,1,4.421-3.3l-.208.955a25.6,25.6,0,0,1-3.439-7.2,32.715,32.715,0,0,1-1.528-7.775Z" fill="#bc7263"/>
        <path id="Path_837" data-name="Path 837" d="M125.926,198.742a4.22,4.22,0,0,1-1.774-1.856,1.8,1.8,0,0,1,0-1.419,2.725,2.725,0,0,1,.955-1.063l-.164.3a25.276,25.276,0,0,0,0-2.913,9.316,9.316,0,0,0-.545-2.728c-.192-.383-.438-.624-.764-.6a2.383,2.383,0,0,0-1.175.518,3.117,3.117,0,0,0-1.009,2.536,3,3,0,0,1,.683-2.913,2.908,2.908,0,0,1,1.446-.817,1.472,1.472,0,0,1,1.5.928,13.215,13.215,0,0,1,.71,6.033v.165h-.164a2.254,2.254,0,0,0-.791.709,1.243,1.243,0,0,0,0,1.009,4.846,4.846,0,0,0,1.091,2.129Z" fill="#dd9078"/>
        <path id="Path_838" data-name="Path 838" d="M139.924,188.732a3.874,3.874,0,0,0,1,1.991,2.61,2.61,0,0,0,2.55.487,2.493,2.493,0,0,0,1.378-1.352,4.876,4.876,0,0,0,.521-2.366,5.619,5.619,0,0,1,.743,3.231,3.3,3.3,0,0,1-2.29,2.428,3.057,3.057,0,0,1-3.085-1.281,5.043,5.043,0,0,1-.818-3.138Z" fill="#1f2733"/>
        <path id="Path_839" data-name="Path 839" d="M155.414,185.878a3.89,3.89,0,0,0,1,1.991,2.61,2.61,0,0,0,2.55.487,2.51,2.51,0,0,0,.825-.538,2.479,2.479,0,0,0,.553-.815,4.863,4.863,0,0,0,.52-2.365,5.61,5.61,0,0,1,.744,3.231,3.306,3.306,0,0,1-2.29,2.428,3.056,3.056,0,0,1-3.086-1.282,5.047,5.047,0,0,1-.818-3.137Z" fill="#1f2733"/>
        <path id="Path_840" data-name="Path 840" d="M156.626,202.29c0,.353-.417.624-.656.844a10.23,10.23,0,0,1-.956.656,9.877,9.877,0,0,1-2.129.928,9.591,9.591,0,0,1-4.749.208,8.194,8.194,0,0,1-4.149-2.4,8.775,8.775,0,0,1-2.129-4.093,10.921,10.921,0,0,0,10.754,4.856,18.945,18.945,0,0,0,2.1-.353A4.849,4.849,0,0,0,156.626,202.29Z" fill="#051f38"/>
        <path id="Path_841" data-name="Path 841" d="M105.782,270.817c6.8-2.1,13.484-4.577,20.443-6.11l-.464-3.111-22.136,5.455s.246,1.638.737,4.255Z" fill="#e09b8d"/>
        <path id="Path_842" data-name="Path 842" d="M103.625,266.968l22.136-5.455s4.776,32.3,5.977,34.1,38.213,3.6,38.213,3.6l10.782.6s-45.473,19.1-58.657,11.375S103.625,266.968,103.625,266.968Z" fill="#e09b8d"/>
        <path id="Path_843" data-name="Path 843" d="M475.244,168.546c-3.657-6.057-8.951-3.9-13.238-3.3,3.849-4.311,3.385-5.892,2.948-11.731a2.977,2.977,0,0,0-.818-2.155,2.866,2.866,0,0,0-1.828-.437,38.718,38.718,0,0,0-10.263,1.09,24.358,24.358,0,0,0-3.439-5.674,2.731,2.731,0,0,0-1.229-1.09,2.4,2.4,0,0,0-1.446,0c-3.221.955-10.345,3.273-10.455,6.683-3.466-6.192-6.468-8.4-13.265-6.956a12.745,12.745,0,0,0-6.687,3.492,8.394,8.394,0,0,0-2.319,7.147l-3.194.383c-.845.736.383,3.218,3.85,2.182a4.155,4.155,0,0,0-1.42-2.318,8.487,8.487,0,0,0-.656-3,5.079,5.079,0,0,0-6.223-2.289A7.971,7.971,0,0,0,401,156.029a11.965,11.965,0,0,0-.272,1.281,8.189,8.189,0,0,0-3.3,3.33,7.685,7.685,0,0,0-.683,2.455,10.875,10.875,0,0,0-1.665-1.719,8.713,8.713,0,0,0-8.188-1.5,3.023,3.023,0,0,0-1.555.982,3.329,3.329,0,0,0-.518,1.5c-.983,6.6,2.974,12.848,6.869,18.249a10.7,10.7,0,0,0-8.489-3.137,7.889,7.889,0,0,0-4.2,1.581,8.918,8.918,0,0,0-2.73,7.936,24.758,24.758,0,0,0,2.894,8.183,7.784,7.784,0,0,0,2.1,2.913,6.665,6.665,0,0,0,3.22.873,26.93,26.93,0,0,0,9.389-.491l8.79,3.848,20.035,7.556c0,.874,12.364,3.084,12.01,3.9l4.176,1.554a32.28,32.28,0,0,1-2.4-3.192l2.29,1.746a3.631,3.631,0,1,0,7.178-.491,8.191,8.191,0,0,0,8.652,3.329,8.431,8.431,0,0,0,6.114-7.039c.192-1.581,0-3.165.165-4.746a17.5,17.5,0,0,0,10.428,1.473c3.439-.9,8.187-4.556,7.286-8.183-.625-2.455,0,0-3.3-6.629a8.95,8.95,0,0,0-3.3-3.3c3.3,0,.417,0,2.73-.437a6.658,6.658,0,0,0,5.458-4.092,6.157,6.157,0,0,0,0-2.728A38.488,38.488,0,0,0,475.244,168.546Zm-45.683-8.185c-.191-1.638,5.459-3.055,4.722-4.557l-8.188,1.719c-2.594,1.227,5.7.9,3.466,2.727Z" fill="#051f38"/>
        <path id="Path_844" data-name="Path 844" d="M395.87,178.92a9.953,9.953,0,0,0-1.447,5.455,9.479,9.479,0,0,0-6.579-3.3,1.24,1.24,0,0,0-.955.208,1.282,1.282,0,0,0-.3.763,18.393,18.393,0,0,0,0,4.665,10.494,10.494,0,0,0-2.729,1.04,1.21,1.21,0,0,0-.546.464,1.07,1.07,0,0,0,0,.624,3.633,3.633,0,0,0,2.915,2.947,7.472,7.472,0,0,0-4.395,7.365,5.673,5.673,0,0,0,1.12,3.111,3.61,3.61,0,0,0,2.915,1.419V205.1c.272.416,1.392,0,1.147-1.555a1.781,1.781,0,0,0-1.064.491,3.578,3.578,0,0,0-1.337,0,2.237,2.237,0,0,0-1.336,2.593,3.47,3.47,0,0,0,2.046,2.289l.546.191a3.627,3.627,0,0,0,1.228,1.637,3.253,3.253,0,0,0,1.01.437,4.686,4.686,0,0,0-.818.625,3.871,3.871,0,0,0-1.12,3.41,1.331,1.331,0,0,0,.326.736,1.418,1.418,0,0,0,.6.3,11.171,11.171,0,0,0,8.188-1.937,4.715,4.715,0,0,0-1.828,3.518,3.515,3.515,0,0,0,.437,1.91,3.819,3.819,0,0,0,3.221,1.665,10.481,10.481,0,0,0,3.684-.791,3.343,3.343,0,0,0,1.366-.736,2.954,2.954,0,0,0,.625-1.309,12.062,12.062,0,0,0,.326-4.12l2.157-3.6,4.314-8.184c.383,0,2.019-5.182,2.348-4.993l.9-1.719a13.773,13.773,0,0,1-1.5.874l.875-.9a1.585,1.585,0,0,0,.191-3.164,3.574,3.574,0,0,0-.737-6.629c-.656-.165-1.365-.165-2.019-.354a7.8,7.8,0,0,0,1.228-4.446,3.121,3.121,0,0,0-3.112-2.892,4.663,4.663,0,0,0-2.729,1.772l-1.528,1.665a8.774,8.774,0,0,1-.417-3.111,2.943,2.943,0,0,0-1.447-2.727,2.72,2.72,0,0,0-1.12-.165,6.138,6.138,0,0,0-4.65,3.04Zm-7.151,17.95c-.71,0-.983-2.483-1.666-2.318l.273,3.683c.383,1.173.71-2.456,1.366-1.365Z" fill="#051f38"/>
        <path id="Path_845" data-name="Path 845" d="M459.6,225.241a9.959,9.959,0,0,0,1.447-5.455,9.476,9.476,0,0,0,6.551,3.329,1.249,1.249,0,0,0,.513,0,.878.878,0,0,0,.769-.971,18.3,18.3,0,0,0,0-4.665,10.476,10.476,0,0,0,2.73-1.009,1.2,1.2,0,0,0,.545-.464,1.054,1.054,0,0,0,0-.624,3.631,3.631,0,0,0-2.894-2.946,7.473,7.473,0,0,0,4.422-7.366,5.669,5.669,0,0,0-1.091-3.11,3.6,3.6,0,0,0-2.914-1.419v-1.554c-.273-.417-1.393,0-1.147,1.554a1.775,1.775,0,0,0,1.063-.491,3.578,3.578,0,0,0,1.337,0,2.236,2.236,0,0,0,1.336-2.564,3.459,3.459,0,0,0-2.019-2.288l-.545-.192a3.628,3.628,0,0,0-1.229-1.637,3.261,3.261,0,0,0-1.009-.437,4.68,4.68,0,0,0,.818-.624,3.873,3.873,0,0,0,1.12-3.41,1.339,1.339,0,0,0-.3-.818,1.431,1.431,0,0,0-.6-.3,11.173,11.173,0,0,0-8.188,1.91,4.719,4.719,0,0,0,1.857-3.491,3.526,3.526,0,0,0-.437-1.91,3.827,3.827,0,0,0-3.221-1.692,10.5,10.5,0,0,0-3.685.764,3.329,3.329,0,0,0-1.365.737,2.946,2.946,0,0,0-.625,1.308,12.072,12.072,0,0,0-.354,4.12l-2.156,3.6-4.341,8.183c-.383,0-2.046,5.183-2.375,4.993l-.9,1.719a13.831,13.831,0,0,1,1.5-.845l-.874.9a1.579,1.579,0,0,0-.614.081,1.6,1.6,0,0,0-.536.309,1.587,1.587,0,0,0,.942,2.775,3.574,3.574,0,0,0,.71,6.629c.655.164,1.365.164,2.019.353a7.792,7.792,0,0,0-1.228,4.447,3.123,3.123,0,0,0,3.085,2.892,4.67,4.67,0,0,0,2.729-1.773l1.528-1.665a8.788,8.788,0,0,1,.383,3.111,2.947,2.947,0,0,0,1.42,2.728,2.738,2.738,0,0,0,1.12.164,6.143,6.143,0,0,0,4.7-2.888Zm7.2-17.922c.71,0,.982,2.509,1.665,2.317l-.245-3.682c-.408-1.18-.756,2.446-1.418,1.356Z" fill="#051f38"/>
        <path id="Path_846" data-name="Path 846" d="M463.341,442.977S437.083,518,434.272,518s-59.093,17.814-9.388-4.692c0,0,5.62-81.561,14.083-85.331S463.341,442.977,463.341,442.977Z" fill="#b76c6c"/>
        <path id="Path_847" data-name="Path 847" d="M443.636,496.993c8.536-22.178,19.707-54.013,19.707-54.013s-15.941-18.741-24.4-15c-5.459,2.428-9.745,37.51-12.091,61.926C432.5,492.137,438.07,494.565,443.636,496.993Z" fill="#76413b"/>
        <path id="Path_848" data-name="Path 848" d="M416.752,517.341s-2.184,4.994,18.451-.3l-.928,2.727S376.109,533.6,416.752,517.341Z" fill="#ff960c"/>
        <path id="Path_849" data-name="Path 849" d="M427.425,437.168s-18.153,77.371-20.934,77.664-56.883,23.979-9.826-3.656c0,0-3.085-81.839,4.913-86.346S427.425,437.168,427.425,437.168Z" fill="#b76c6c"/>
        <path id="Path_850" data-name="Path 850" d="M389.021,516.087s-1.639,5.2,18.319-2.264l-.624,2.892S350.316,536.548,389.021,516.087Z" fill="#ff960c"/>
        <path id="Path_851" data-name="Path 851" d="M416.234,482.834c5.458-21.414,11.191-45.666,11.191-45.666s-17.851-16.94-25.847-12.33c-5.186,3-5.7,38.328-5.459,62.744C415.988,486.354,413.994,483.762,416.234,482.834Z" fill="#76413b"/>
        <path id="Path_852" data-name="Path 852" d="M473.2,308.435s-24.867-27.662-39.415-10.315S391.067,456.15,392.43,479.776a150.728,150.728,0,0,1,19.871,3.3l4.613,1.611s36.575,9.847,34.256,9.847c-1.419,0,36.111-100.8,39.879-132.661S473.2,308.435,473.2,308.435Z" fill="#8725e0"/>
        <path id="Path_853" data-name="Path 853" d="M452.153,319.783a58.1,58.1,0,0,0,23.252-4.665c-1.474-1.991-2.4-3.027-2.4-3.027s-27.294-33.962-43.18-12.659a96.636,96.636,0,0,0-7.861,13.013,57.674,57.674,0,0,0,30.186,7.338Z" fill="#352c38" opacity="0.2"/>
        <path id="Path_854" data-name="Path 854" d="M425.433,314.217c-11.327,28.863-26.8,110.592-29.805,129.114-10.29,63.37,3.3,33.118,26.5,43.048,4.122-31.344,20.171-94.687,24.566-119.757C435.505,353.964,430.892,327.176,425.433,314.217Z" fill="#352c38" opacity="0.43"/>
        <path id="Path_855" data-name="Path 855" d="M440.362,236.716c-.9,1.691,3.657-37.647,3.657-37.647L422.7,213.425s1.857,25.1-.464,25.207a57.781,57.781,0,0,0-8.625,2.892c.955,4.692,2.729,5.7,4.372,10.177,11.955,0,24.81-.354,32.153-11.294C446.039,239.171,441.59,234.425,440.362,236.716Z" fill="#76413b"/>
        <path id="Path_856" data-name="Path 856" d="M420.191,239.034l-.928-3.273L442.71,230.6l.928,5.618s28.142,9.383,31.908,30.471,1.874,34.7-2.348,41.71c0,0-32.753,4.692-46.92-2.347s-28.6-59.548-21.1-64.217A21,21,0,0,1,420.191,239.034Z" fill="#ffa65b"/>
        <path id="Path_857" data-name="Path 857" d="M450.9,297.495c-11.242-.682-25.03-1.991-34.392-8.946a41,41,0,0,1-4.913-4.311c4.2,10.365,9.5,19.258,14.712,21.823,14.084,7.039,46.92,2.347,46.92,2.347a33.442,33.442,0,0,0,3.93-13.316,74.131,74.131,0,0,1-26.257,2.4Z" fill="#161826" opacity="0.1"/>
        <path id="Path_858" data-name="Path 858" d="M438.5,270.162,458.428,283.5s-30.953,29.327-45.5,36.363-75.415,31.863-45.691,14.7c0,0-28.313,9.33-1.555-1.827,0,0-24.566,6.219-.6-2.263,0,0-23.855,4.473,5.458-5.294,0,0-13.648-3.054,3.712-2.428l32.753-19.533Z" fill="#b76c6c"/>
        <path id="Path_859" data-name="Path 859" d="M455.894,285.9l2.538-2.374-19.925-13.339-1.666,1.746C443.037,276.791,449.424,281.4,455.894,285.9Z" fill="#76413b"/>
        <path id="Path_860" data-name="Path 860" d="M424.721,173.918s11.956-6.955,29.4,4.473c11.573,7.611,10.919,31.863-13.948,47.795C410.473,245.336,424.721,173.918,424.721,173.918Z" fill="#051f38"/>
        <path id="Path_861" data-name="Path 861" d="M441.236,186.876s-13.43-10.449-24.838-5.293c-14.493,6.548-12.965,21.824-13.265,34.89-.383,17.324,13.323,20.6,17.441,20.807C426.743,237.588,451.553,236.11,441.236,186.876Z" fill="#b76c6c"/>
        <path id="Path_862" data-name="Path 862" d="M442.518,203.082s.573-2.727,5.078-.518c5.731,2.728,2.729,16.369-3.793,16.069S442.518,203.082,442.518,203.082Z" fill="#b76c6c"/>
        <path id="Path_863" data-name="Path 863" d="M442.518,203.08s.792,9.363-1.419,9.494-4.58-16.994,1.611-16.913S442.518,203.08,442.518,203.08Z" fill="#051f38"/>
        <path id="Path_864" data-name="Path 864" d="M441.59,203.161s-12.72-27.988-35.919-11.431a18.555,18.555,0,0,1,14-17.186c13.921-3.928,33.49,14.758,27.731,28.043Z" fill="#ffa65b"/>
        <path id="Path_865" data-name="Path 865" d="M403.924,198.3a4.935,4.935,0,0,1,1.992-2.727,5.413,5.413,0,0,1,8.407,3.763c-1.12-.464-1.966-.955-2.73-1.281a7.624,7.624,0,0,0-2.319-.624,13.329,13.329,0,0,0-5.35.873Z" fill="#051f38"/>
        <path id="Path_866" data-name="Path 866" d="M444.673,215.957a4.8,4.8,0,0,0,1.064-2.182,1.148,1.148,0,0,0-.273-.955,2.4,2.4,0,0,0-.928-.545h-.192v-.192a23.938,23.938,0,0,1-.491-2.973,7.648,7.648,0,0,1,.273-3.111,1.472,1.472,0,0,1,1.446-1.063,3.246,3.246,0,0,1,1.528.545,2.865,2.865,0,0,1,1.2,2.728,2.948,2.948,0,0,0-1.474-2.289,2.74,2.74,0,0,0-1.249-.3c-.354,0-.573.208-.71.624a8.175,8.175,0,0,0-.138,2.728,23.26,23.26,0,0,0,.354,2.892l-.245-.273a2.734,2.734,0,0,1,1.147.845,1.712,1.712,0,0,1,.272,1.419,4.167,4.167,0,0,1-1.584,2.1Z" fill="#76413b"/>
        <path id="Path_867" data-name="Path 867" d="M413.586,219.886a5.023,5.023,0,0,1-4.122-1.2l-.546-.416.165-.464q2.729-8.047,5.814-15.986Q412.878,210,410.5,218.188l-.384-.9a5.022,5.022,0,0,1,3.467,2.592Z" fill="#76413b"/>
        <path id="Path_868" data-name="Path 868" d="M419.1,197.188a7.618,7.618,0,0,1,7.451-3.3,7.832,7.832,0,0,1,3.955,1.746,7.388,7.388,0,0,1,2.376,3.383c-1.337-.518-2.4-1.12-3.521-1.5a13.049,13.049,0,0,0-3.22-.845,20.8,20.8,0,0,0-7.043.518Z" fill="#051f38"/>
        <path id="Path_869" data-name="Path 869" d="M426.661,205.673A1.665,1.665,0,1,0,425,204.008,1.665,1.665,0,0,0,426.661,205.673Z"/>
        <path id="Path_870" data-name="Path 870" d="M409.41,206.355a1.664,1.664,0,1,0-1.666-1.664A1.665,1.665,0,0,0,409.41,206.355Z"/>
        <path id="Path_871" data-name="Path 871" d="M427.534,217.62c.272.208,0,.736,0,1.063a10.5,10.5,0,0,1-.383,1.09,9.861,9.861,0,0,1-1.2,1.991,9.578,9.578,0,0,1-3.711,2.974,8.2,8.2,0,0,1-4.776.518,8.793,8.793,0,0,1-4.122-2.046,10.921,10.921,0,0,0,11.546-2.4,18.8,18.8,0,0,0,1.5-1.5,4.842,4.842,0,0,0,1.147-1.691Z" fill="#280f08"/>
        <path id="Path_872" data-name="Path 872" d="M166.129,299.241l10.59-5.455,3.331-3.329a10.284,10.284,0,0,1-3.275,6.71c-3.33,3.329,13.266-3.329,13.266-3.329l-9.964,6.628h13.347L180.158,303.8h13.266l-13.266,3.329,6.633,3.33s-16.6,0-23.229-6.629S166.129,299.241,166.129,299.241Z" fill="#e09b8d"/>
        <path id="Path_873" data-name="Path 873" d="M18.11,106.537a18.04,18.04,0,0,1,5.621.9A15.693,15.693,0,0,1,46.768,87.851,22.6,22.6,0,0,1,89.923,91.86a26.245,26.245,0,1,1,9.035,50.876H18.11a18.1,18.1,0,1,1,0-36.2Z" fill="#e5f9f8"/>
        <g id="Group_1101" data-name="Group 1101" opacity="0.8">
          <path id="Path_874" data-name="Path 874" d="M425.889,45.92a25.313,25.313,0,0,1,7.86,1.258,21.936,21.936,0,0,1,32.212-27.353,31.612,31.612,0,0,1,60.341,5.6,36.657,36.657,0,1,1,12.633,71.047H425.889a25.278,25.278,0,1,1,0-50.557Z" fill="#e5f9f8"/>
        </g>
        <path id="Path_875" data-name="Path 875" d="M386.173,193.5a9.363,9.363,0,1,0-9.368-9.363A9.365,9.365,0,0,0,386.173,193.5Z" fill="#051f38"/>
        <path id="Path_876" data-name="Path 876" d="M394.5,172.693a9.363,9.363,0,1,0-9.368-9.363A9.365,9.365,0,0,0,394.5,172.693Z" fill="#051f38"/>
        <path id="Path_877" data-name="Path 877" d="M411.154,164.37a9.363,9.363,0,1,0-9.368-9.363A9.365,9.365,0,0,0,411.154,164.37Z" fill="#051f38"/>
        <path id="Path_878" data-name="Path 878" d="M425.727,162.289a9.363,9.363,0,1,0-9.368-9.362A9.365,9.365,0,0,0,425.727,162.289Z" fill="#051f38"/>
        <path id="Path_879" data-name="Path 879" d="M444.463,162.289a9.363,9.363,0,1,0-9.368-9.362A9.365,9.365,0,0,0,444.463,162.289Z" fill="#051f38"/>
        <path id="Path_880" data-name="Path 880" d="M456.954,168.531a9.363,9.363,0,1,0-9.368-9.362A9.366,9.366,0,0,0,456.954,168.531Z" fill="#051f38"/>
        <path id="Path_881" data-name="Path 881" d="M467.363,181.015a9.363,9.363,0,1,0-9.368-9.363A9.366,9.366,0,0,0,467.363,181.015Z" fill="#051f38"/>
        <path id="Path_882" data-name="Path 882" d="M469.444,183.1a9.363,9.363,0,1,0-9.368-9.363A9.365,9.365,0,0,0,469.444,183.1Z" fill="#051f38"/>
        <path id="Path_883" data-name="Path 883" d="M471.526,189.338a9.363,9.363,0,1,0-9.368-9.363A9.365,9.365,0,0,0,471.526,189.338Z" fill="#051f38"/>
        <path id="Path_884" data-name="Path 884" d="M469.444,208.063a9.363,9.363,0,1,0-9.368-9.362A9.365,9.365,0,0,0,469.444,208.063Z" fill="#051f38"/>
        <path id="Path_885" data-name="Path 885" d="M467.363,222.628a9.363,9.363,0,1,0-9.368-9.363A9.366,9.366,0,0,0,467.363,222.628Z" fill="#051f38"/>
        <path id="Path_886" data-name="Path 886" d="M386.173,214.3a9.362,9.362,0,1,0-9.368-9.363A9.365,9.365,0,0,0,386.173,214.3Z" fill="#051f38"/>
      </g>
      <ellipse id="Ellipse_352" data-name="Ellipse 352" cx="69.732" cy="6.816" rx="69.732" ry="6.816" transform="translate(214.962 525.348)" fill="#e6e6e6"/>
    </g>
    <g id="Group_1105" data-name="Group 1105">
      <g transform="matrix(1, 0, 0, 1, 597.16, 6641.5)" filter="url(#Union_73)">
        <path id="Union_73-2" data-name="Union 73" d="M5.731,32.674A21,21,0,0,1,23.514.5h95a21,21,0,1,1,0,42h-95a20.977,20.977,0,0,1-6.747-1.107L0,48.763Z" transform="translate(162.83 102.5)" fill="#fff"/>
      </g>
      <text id="We_are_Tydizens" data-name="We are Tydizens" transform="translate(779 6771)" fill="#01a887" font-size="14" font-family="DMSans-Regular, DM Sans"><tspan x="0" y="0">We are </tspan><tspan y="0" font-family="DMSans-Bold, DM Sans" font-weight="700">Tydizens</tspan></text>
    </g>
  </g>
</svg>
