<svg width="538" height="624" viewBox="0 0 538 624" fill="none" xmlns="http://www.w3.org/2000/svg">
<path d="M421.635 142.15C406.171 156.556 384.671 182.387 343.838 184.244C337.585 184.522 332.125 187.424 330.944 191.158C329.913 194.411 332.125 198.594 339.539 198.071C363.179 196.481 393.954 185.027 423.075 144.861C425.912 141.148 421.635 142.15 421.635 142.15Z" fill="#333E44"/>
<path d="M333.309 100.593C329.165 98.0986 324.319 97.0295 319.511 97.5495C314.702 98.0695 310.196 100.15 306.682 103.473C306.682 103.473 305.629 113.233 315.278 113.766C318.674 103.839 322.928 101.317 333.309 100.593Z" fill="#333E44"/>
<path d="M322.348 99.8408C324.673 99.168 327.084 98.8418 329.504 98.8728C325.66 97.3658 321.463 96.9982 317.415 97.8139C313.368 98.6297 309.641 100.594 306.68 103.473C306.483 105.988 307.142 108.496 308.549 110.59C309.972 107.936 311.935 105.609 314.311 103.758C316.687 101.908 319.424 100.575 322.346 99.8448L322.348 99.8408Z" fill="#212B30"/>
<path d="M333.996 100.23C333.959 100.092 333.895 99.9635 333.808 99.8511C333.72 99.7386 333.611 99.6446 333.488 99.5746C333.364 99.5046 333.227 99.46 333.086 99.4432C332.944 99.4265 332.801 99.4381 332.664 99.4772C332.105 99.6501 331.741 100.724 331.912 101.307C332.082 101.891 332.707 101.736 333.286 101.566C333.556 101.482 333.782 101.295 333.915 101.045C334.047 100.796 334.077 100.504 333.996 100.234V100.23Z" fill="#ED8C6B"/>
<path d="M362.363 120.322C359.053 111.92 341.925 110.358 333.457 100.315C333.224 100.248 332.973 100.275 332.76 100.392C332.547 100.508 332.388 100.704 332.318 100.937C330.986 112.951 317.881 122.427 319.833 132.635L330.578 205.273C333.372 219.994 398.877 204.177 391.332 185.03L362.363 120.322Z" fill="#333E44"/>
<path d="M333.459 100.315C333.226 100.248 332.975 100.275 332.762 100.392C332.549 100.508 332.39 100.704 332.32 100.937C330.988 112.951 317.883 122.427 319.835 132.635L321.533 144.155C321.069 145.076 320.812 146.088 320.78 147.119C321.149 148.353 321.723 149.516 322.478 150.558L325.681 172.048C326.879 172.293 328.093 172.459 329.313 172.542C348.332 173.811 365.117 155.349 367.181 131.059L362.343 120.322C359.032 111.897 341.927 110.35 333.459 100.315Z" fill="#4A5F68"/>
<path d="M334.964 107.979C337.202 107.335 339.513 106.981 341.841 106.925C338.68 105.237 335.843 103.003 333.459 100.327C333.226 100.26 332.975 100.287 332.762 100.404C332.549 100.52 332.39 100.716 332.32 100.949C331.836 104.328 330.705 107.583 328.99 110.535C330.872 109.447 332.878 108.588 334.964 107.977V107.979Z" fill="#333E44"/>
<path d="M335.092 105.622C337.241 107.772 345.666 112.929 345.945 112.241C346.223 111.554 336.81 104.998 336.81 104.998L335.092 105.622Z" fill="#333E44"/>
<path d="M331.999 106.448C330.86 107.996 329.85 114.035 330.537 114.271C331.224 114.507 334.104 105.838 334.104 105.838L331.999 106.448Z" fill="#333E44"/>
<path d="M333.093 106.977C333.155 107.794 333.497 108.564 334.061 109.159C334.624 109.754 335.376 110.136 336.188 110.242C336.961 110.027 336.038 105.643 336.038 105.643L333.093 106.977Z" fill="#333E44"/>
<path d="M322.342 128.318C323.029 124.407 328.209 123.332 328.424 127.35C328.796 132.684 321.167 135.173 322.342 128.318Z" fill="#749BA8"/>
<path d="M330.322 130.962C331.418 128.812 333.168 129.538 332.278 131.865C331.137 134.96 328.408 134.551 330.322 130.962Z" fill="#749BA8"/>
<path d="M377.387 72.6144C373.859 69.3057 369.345 67.2434 364.534 66.7429C359.723 66.2424 354.881 67.3311 350.748 69.8427C350.748 69.8427 347.633 79.148 356.895 81.7264C362.386 72.655 367.093 71.0221 377.387 72.6144Z" fill="#333E44"/>
<path d="M366.756 69.5176C369.171 69.3557 371.596 69.551 373.954 70.0972C370.516 67.8366 366.501 66.6106 362.387 66.5648C358.272 66.519 354.231 67.6554 350.744 69.8389C350.014 72.2526 350.12 74.8421 351.045 77.188C352.984 74.8846 355.384 73.0122 358.089 71.6909C360.795 70.3696 363.747 69.6287 366.756 69.5156V69.5176Z" fill="#212B30"/>
<path d="M378.224 72.3989C378.217 72.2571 378.182 72.1182 378.121 71.9901C378.059 71.8621 377.973 71.7475 377.867 71.6529C377.761 71.5583 377.638 71.4857 377.504 71.4393C377.369 71.3928 377.227 71.3734 377.086 71.3822C376.506 71.3822 375.904 72.4132 375.947 73.009C375.99 73.6048 376.634 73.5885 377.236 73.5458C377.378 73.5351 377.515 73.4964 377.642 73.4321C377.768 73.3678 377.88 73.2791 377.972 73.1712C378.064 73.0632 378.134 72.9381 378.177 72.8031C378.22 72.6682 378.236 72.5259 378.224 72.3847V72.3989Z" fill="#ED8C6B"/>
<path d="M401.543 98.1007C400.103 89.1818 383.705 84.0025 377.58 72.3119C377.366 72.1964 377.115 72.17 376.881 72.2386C376.648 72.3071 376.451 72.465 376.333 72.678C372.47 84.1326 357.635 90.5361 357.357 100.96L352.436 174.387C352.029 189.435 419.401 187.906 416.113 167.595L401.543 98.1007Z" fill="#333E44"/>
<path d="M377.602 72.3764C377.388 72.2608 377.137 72.2345 376.904 72.303C376.67 72.3716 376.473 72.5295 376.356 72.7424C372.492 84.1971 357.658 90.6005 357.379 101.024L356.584 112.652C355.94 113.452 355.478 114.383 355.23 115.381C355.326 116.663 355.638 117.92 356.153 119.098L354.585 140.824C355.702 141.315 356.851 141.732 358.024 142.07C376.325 147.378 396.707 132.92 403.885 109.64L401.477 98.1001C400.103 89.1873 383.705 84.0019 377.602 72.3764Z" fill="#333E44"/>
<path d="M377.431 80.1992C379.754 80.0454 382.087 80.1896 384.374 80.6283C381.648 78.2982 379.357 75.5046 377.604 72.3764C377.39 72.2608 377.139 72.2345 376.906 72.303C376.672 72.3716 376.475 72.5295 376.358 72.7424C375.154 75.9205 373.353 78.8384 371.05 81.338C373.125 80.7059 375.268 80.3236 377.433 80.1992H377.431Z" fill="#333E44"/>
<path d="M378.074 77.8544C379.75 80.4979 386.842 87.245 387.272 86.6431C387.701 86.0412 379.9 77.6165 379.9 77.6165L378.074 77.8544Z" fill="#333E44"/>
<path d="M374.851 78.0476C373.411 79.3165 371.046 84.99 371.736 85.3682C372.425 85.7464 377.023 77.9114 377.023 77.9114L374.851 78.0476Z" fill="#333E44"/>
<path d="M375.839 78.8029C375.722 79.6155 375.889 80.4437 376.312 81.1476C376.734 81.8515 377.387 82.388 378.159 82.6665C378.954 82.6665 378.997 78.1318 378.997 78.1318L375.839 78.8029Z" fill="#333E44"/>
<path d="M360.753 97.3706C362.257 93.6961 367.565 93.7388 366.9 97.7143C366.017 102.981 358.131 103.815 360.753 97.3706Z" fill="#749BA8"/>
<path d="M367.974 101.667C369.478 99.9043 371.046 100.895 369.692 102.979C367.931 105.622 365.33 104.762 367.974 101.667Z" fill="#749BA8"/>
<path d="M247.282 335.576C248.528 342.669 236 347.482 236 347.482L232.283 329.791C232.283 329.791 246.399 330.482 247.282 335.576Z" fill="#212B30"/>
<path d="M160.757 339.055H263.263L268.42 337.428C268.42 337.428 272.029 329.821 271.267 329.262C260.199 321.374 258.372 304.225 258.372 304.225C258.372 304.225 252.764 299.39 249.368 296.059C239.439 301.968 221.021 301.604 209.953 289.611L195.554 286.154L181.649 282.607L157.686 293.224L160.757 339.055Z" fill="#526166"/>
<path d="M178.509 285.415V284.126L157.706 293.346L160.801 339.079H197.335C186.956 328.698 180.25 311.741 178.509 285.415Z" fill="#455559"/>
<path d="M258.368 304.219C258.368 304.219 252.76 299.383 249.364 296.053C239.435 301.962 221.017 301.598 209.949 289.604L195.55 286.147L181.645 282.601L179.796 283.414C182.611 301.832 201.652 319.948 228.193 327.578C241.984 331.728 256.637 332.092 270.616 328.631C260.024 320.66 258.368 304.219 258.368 304.219Z" fill="#677C82"/>
<path d="M249.279 296.053C239.349 301.962 220.932 301.598 209.863 289.605L201.16 287.628C203.31 301.059 217.922 312.494 236.62 314.363C244.469 315.223 252.409 314.146 259.745 311.225C259.081 308.961 258.592 306.65 258.283 304.311C258.283 304.311 252.76 299.384 249.279 296.053Z" fill="#799599"/>
<path d="M270.382 330.159C270.382 330.159 276.379 332.436 284.889 328.396C296.622 322.808 293.873 331.082 298.794 332.908C304.297 334.942 311.172 326.675 311.689 339.055H277.691L270.104 335.745L270.382 330.159Z" fill="#677C82"/>
<path d="M43.8268 339.143H110.794L130.372 322.265L128.933 290.695L124.29 275.995L131.511 267.828L125.321 255.3L128.416 222.634L122.743 213.93L117.586 210.126L87.1951 190.533L66.6059 198.699C66.6059 198.699 49.0915 214.473 37.2484 217.741L31.9837 223.823L38.4319 236.524C38.4319 236.524 46.5333 242.499 50.3583 242.607C54.9367 242.401 59.429 241.291 63.576 239.341L64.5216 240.522C64.5216 240.522 68.2388 242.8 63.7916 247.871C62.7382 249.075 56.9794 248.3 56.0969 250.236C55.5804 251.375 58.9559 253.524 58.5045 254.749C58.0531 255.973 53.2398 257.415 52.8514 258.612C50.1225 267.531 56.1823 266.929 53.5184 273.162L45.2868 285.497V304.732C45.2868 304.732 36.3394 321.065 34.5418 321.795L43.8268 331.273V339.143Z" fill="#455559"/>
<path d="M126.157 219.352L122.633 213.936L117.476 210.132L87.0873 190.533L79.2218 193.736C97.4009 196.468 114.027 205.544 126.157 219.358V219.352Z" fill="#314044"/>
<path d="M43.5461 331.019L43.8247 331.32V339.12H110.792L130.37 322.242L106.064 289.499C101.141 318.726 87.8397 333.427 43.5461 331.019Z" fill="#314044"/>
<path d="M66.608 198.699C66.608 198.699 49.0935 214.473 37.2504 217.74L31.9857 223.823L38.4339 236.524C38.4339 236.524 46.5354 242.498 50.3604 242.606C54.9387 242.401 59.431 241.291 63.5781 239.34L64.5236 240.522C64.5236 240.522 68.2409 242.799 63.7936 247.871C62.7403 249.075 56.9814 248.3 56.0989 250.236C55.5824 251.374 58.958 253.524 58.5065 254.748C58.0551 255.972 53.2418 257.414 52.8534 258.612C50.1245 267.531 56.1843 266.929 53.5204 273.161L45.2888 285.496V288.677C47.5332 288.974 49.7944 289.124 52.0583 289.128C86.221 289.128 113.931 256.226 113.931 215.63C113.931 212.966 113.803 210.322 113.565 207.742L87.0019 190.555L66.608 198.699Z" fill="#677C82"/>
<path d="M113.992 216.838V215.569C113.992 212.905 113.864 210.262 113.626 207.681L87.0568 190.49L66.5978 198.699C66.5978 198.699 50.3075 213.377 38.5092 217.353C50.2595 222.426 62.9556 224.939 75.7526 224.724C88.9228 224.959 101.981 222.265 113.982 216.836L113.992 216.838Z" fill="#799599"/>
<path d="M75.9559 295.512L92.4618 252.229L97.6635 224.441L114.47 217.564L107.225 285.751L75.9559 295.512Z" fill="#455559"/>
<path d="M77.7597 249.848C77.7597 238.629 66.8642 229.539 53.433 229.539C47.735 229.503 42.1705 231.263 37.5291 234.568L38.5173 236.502C38.5173 236.502 46.6188 242.476 50.4438 242.584C55.0221 242.379 59.5144 241.269 63.6615 239.318L64.607 240.5C64.607 240.5 68.3243 242.777 63.877 247.849C62.8237 249.053 57.0648 248.278 56.1823 250.214C55.6658 251.352 59.0414 253.502 58.5899 254.726C58.1385 255.95 53.3252 257.392 52.9388 258.59C50.7894 265.768 54.2505 266.778 54.2932 270.18C67.336 269.727 77.7597 260.808 77.7597 249.848Z" fill="#526368"/>
<path d="M97.3178 339.057H165.659L164.846 336.198L176.323 334.694L179.589 310.56L174.066 286.62L176.913 256.683L171.066 209.506C171.066 209.506 143.602 194.999 142.569 177.269L138.429 176.543C138.429 176.543 120.227 201.042 104.775 209.382C104.775 209.382 106.924 231.711 99.9613 247.312L88.9805 282.514L94.5461 306.391L91.4512 320.189L92.1812 329.136L100.004 331.714L97.3178 339.057Z" fill="#606F75"/>
<path d="M179.562 310.568L174.06 286.627L176.907 256.69L171.06 209.513C168.089 207.866 165.219 206.044 162.465 204.055C165.053 216.206 166.332 228.599 166.282 241.022C166.282 282.005 155.321 296.103 139.655 296.103C123.989 296.103 109.588 282.062 109.588 241.022C109.518 228.359 110.837 215.726 113.521 203.35C110.846 205.59 107.969 207.576 104.925 209.281C104.925 209.281 107.064 231.603 100.11 247.204L89.1289 282.406L94.5441 306.389L91.4491 320.186L92.1791 329.133L100.002 331.712L97.3381 339.148H165.68L164.866 336.289L176.343 334.784L179.562 310.568Z" fill="#526368"/>
<path d="M179.284 312.667C165.436 321.701 149.251 326.497 132.717 326.464C119.099 326.71 105.646 323.454 93.6473 317.008L92.7912 320.719L92.1812 329.122L100.004 331.7L97.3401 339.136H165.682L164.868 336.277L176.345 334.773L179.284 312.667Z" fill="#455559"/>
<path d="M176.319 334.586L168.152 331.899L137.04 336.627L107.083 335.338L111.209 339.055H165.659L164.846 336.196L176.301 334.691L176.319 334.586Z" fill="#314044"/>
<path d="M8.58227 240.35C8.36672 244.97 15.4372 221.652 21.8 220.751C28.1628 219.85 30.8897 221.288 30.8897 221.288L34.3283 215.85C34.3283 215.85 13.7189 199.883 13.3833 207.513C13.0478 215.142 -2.41283 210.778 0.33849 213.961C3.08981 217.143 8.90356 233.279 8.58227 240.35Z" fill="#7D9096"/>
<path d="M13.3528 207.512V207.879C17.0536 211.469 19.7698 215.951 21.2408 220.893C21.4284 220.823 21.6226 220.773 21.8203 220.742C28.2685 219.84 30.91 221.279 30.91 221.279L34.3486 215.842C34.3486 215.842 13.6965 199.883 13.3528 207.512Z" fill="#677C82"/>
<path d="M38.4319 216.752L33.1021 213.851L28.3092 224.75L33.1021 227.652L38.4319 216.752Z" fill="#81B3C9"/>
<path d="M142.64 177.207L138.514 176.477C138.514 176.477 120.315 200.977 104.86 209.316C104.86 209.316 104.86 210.046 104.988 211.335C110.253 227.841 131.529 240.197 156.997 240.197C162.95 240.186 168.88 239.464 174.662 238.047L171.115 209.422C171.115 209.422 143.673 194.98 142.64 177.207Z" fill="#7D9096"/>
<path d="M165.853 222.727C168.151 222.723 170.445 222.514 172.707 222.105L171.14 209.512C171.14 209.512 143.675 195.005 142.642 177.275L138.516 176.543C138.516 176.543 134.777 181.594 129.231 187.869V188.256C129.231 207.275 145.621 222.727 165.853 222.727Z" fill="#869FA5"/>
<path d="M140.428 172.675C142.838 166.999 146.813 162.125 151.889 158.624C156.966 155.123 162.934 153.139 169.096 152.903C167.673 153.784 171.481 156.385 170.621 157.481C169.761 158.577 164.173 158.168 164.002 159.457C163.831 160.747 169.397 161.113 169.611 162.359C169.889 164.035 164.933 166.485 165.999 168.419C165.999 168.419 148.806 164.443 142.488 175.146L140.428 172.675Z" fill="#7D9096"/>
<path d="M161.316 157.651C164.328 156.797 167.448 156.386 170.578 156.431C169.968 155.184 168 153.486 169.074 152.799C162.901 153.041 156.926 155.038 151.848 158.555C146.77 162.072 142.799 166.963 140.401 172.656L142.207 174.806C144.338 167.214 151.508 160.421 161.316 157.651Z" fill="#869FA5"/>
<path d="M136.302 177.488L144.017 180.754L147.37 174.478L138.108 170.676L136.302 177.488Z" fill="#81B3C9"/>
<path d="M178.96 315.072L179.571 310.56L174.068 286.619L174.434 282.815C156.222 306.519 165.572 316.705 178.96 315.072Z" fill="#606F75"/>
<path d="M101.958 242.09C101.43 243.845 100.799 245.567 100.067 247.247L89.3221 281.633C101.938 289.348 112.532 277.034 101.958 242.09Z" fill="#606F75"/>
<path d="M171.912 257.046C156.718 262.634 119.367 292.077 164.97 276.173L171.912 257.046Z" fill="#526368"/>
<path d="M173.738 229.539C149.861 234.483 130.541 226.745 171.353 209.768L173.738 229.539Z" fill="#606F75"/>
<path d="M145.499 244.154C134.002 240.291 110.985 221.804 115.755 217.934C120.526 214.065 154.825 240.71 154.825 240.71L145.499 244.154Z" fill="#606F75"/>
<path d="M153.709 260.593C149.242 260.464 144.772 260.593 140.32 260.979C144.714 262.253 149.396 262.118 153.709 260.593Z" fill="#7D9096"/>
<path d="M140.298 260.958C127.875 258.164 114.509 249.504 113.177 250.514C111.347 251.911 121.085 260.444 131.165 266.396C128.715 263.431 132.818 261.69 140.298 260.958Z" fill="#7D9096"/>
<path d="M147.456 210.111C139.505 210.111 123.3 203.986 131.251 192.217C133.532 188.618 136.045 185.172 138.775 181.901C138.775 181.901 132.8 192.068 132.993 196.666C133.272 204.123 151.091 201.546 150.788 206.122C150.485 210.697 147.456 210.111 147.456 210.111Z" fill="#606F75"/>
<path d="M97.7469 302.822C102.046 302.177 107.074 295.944 108.171 291.217C108.171 291.217 114.253 310.988 129.231 318.295L97.7469 302.822Z" fill="#455559"/>
<path d="M104.882 209.316C105.033 211.035 105.011 213.615 109.181 219.524C108.02 217.267 108.559 213.465 110.45 209.967C113.159 204.938 118.08 200.125 119.67 197.868C115.251 202.302 110.282 206.149 104.882 209.316Z" fill="#8AA6AD"/>
<path d="M71.0329 238.35C83.9272 245.443 91.4491 254.038 87.9678 257.261C84.4865 260.484 73.2026 254.683 73.2026 254.683L71.0329 238.35Z" fill="#526368"/>
<path d="M97.9624 225.24C97.9624 225.24 79.0713 244.583 95.5771 241.144L97.9624 225.24Z" fill="#455559"/>
<path d="M74.5162 206.758C64.7554 207.681 53.8844 215.785 62.7829 214.925C71.6815 214.064 73.6357 212.346 77.5481 212.56C81.4606 212.773 92.958 214.493 93.8385 212.989C94.719 211.484 83.6283 205.9 74.5162 206.758Z" fill="#677C82"/>
<path d="M52.5952 225.027C59.989 221.804 70.6262 217.934 71.9378 219.439C73.2494 220.944 69.5525 226.745 69.5525 226.745L52.5952 225.027Z" fill="#677C82"/>
<path d="M76.4724 265.643C70.8193 261.56 65.6197 257.048 67.8769 255.328C70.1341 253.607 83.8011 258.207 83.8011 258.207L76.4724 265.643Z" fill="#677C82"/>
<path d="M47.8246 294.741C46.8363 292.054 72.7979 293.279 72.2814 295.664C71.7649 298.049 49.1342 298.222 47.8246 294.741Z" fill="#677C82"/>
<path d="M134.368 302.974C133.508 301.813 140.468 302.364 146.595 300.825C152.722 299.286 158.028 295.819 158.115 297.043C158.203 298.267 154.075 303.06 148.487 304.607C142.899 306.155 135.523 304.542 134.368 302.974Z" fill="#606F75"/>
<path d="M38.4421 216.752L33.1123 213.851C26.3753 229.065 35.4244 224.166 38.4421 216.752Z" fill="#AED1E5"/>
<path d="M258.47 303.811C250.088 314.556 233.584 329.471 263.113 319.456C260.909 314.459 259.349 309.202 258.47 303.811Z" fill="#526166"/>
<path d="M189.364 318.726C189.858 317.803 194.586 323.133 200.991 325.99C207.804 329.02 216.314 329.65 215.197 330.976C214.081 332.302 204.452 333.125 197.618 329.902C191.641 327.108 188.353 320.632 189.364 318.726Z" fill="#677C82"/>
<path d="M165.849 222.725C159.4 224.466 160.283 227.809 165.053 226.314C169.824 224.82 172.063 221.072 165.849 222.725Z" fill="#7D9096"/>
<path d="M79.9314 283.697C67.5535 283.052 52.3593 277.035 56.7008 275.53C61.0423 274.026 85.1331 278.753 85.1331 278.753L79.9314 283.697Z" fill="#455559"/>
<path d="M176.297 334.693L176.703 312.428L179.304 313.138L176.297 334.693Z" fill="#606F75"/>
<path d="M194.478 293.905C198.195 295.603 206.679 296.162 208.963 293.562C211.246 290.961 211.456 299.709 202.279 299.235C193.101 298.761 187.408 290.702 194.478 293.905Z" fill="#526166"/>
<path d="M194.584 313.569C203.911 314.429 222.156 313.998 222.801 315.503C223.445 317.008 210.207 322.809 210.207 322.809L194.584 313.569Z" fill="#526166"/>
<path d="M268.428 337.424C268.428 337.424 268.772 336.715 269.201 335.726L228.531 334.781C227.671 334.781 188.878 336.499 188.878 336.499L172.459 339.057H263.279L268.428 337.424Z" fill="#314044"/>
<path d="M273.306 329.058L268.857 327.059L266.966 337.761L273.821 337.964L273.306 329.058Z" fill="#81B3C9"/>
<path d="M268.857 326.978C268.621 330.674 271.007 342.709 273.284 328.633L268.857 326.978Z" fill="#AED1E5"/>
<path d="M147.368 174.393L138.106 170.588C137.912 177.317 143.972 180.327 147.368 174.393Z" fill="#AED1E5"/>
<path d="M277.691 339.055C283.236 335.488 286.416 332.2 289.747 332.607C293.078 333.013 297.999 338.911 297.999 338.911L277.691 339.055Z" fill="#526166"/>
<path d="M296.366 339.057C299.848 336.393 305.887 333.749 307.994 334.071C310.1 334.392 309.155 338.972 309.155 338.972L296.366 339.057Z" fill="#526166"/>
<path d="M433.885 330.16C433.908 332.169 433.133 334.104 431.731 335.542C430.329 336.98 428.414 337.804 426.406 337.833C424.398 337.855 422.462 337.081 421.024 335.679C419.586 334.277 418.762 332.362 418.734 330.353L418.433 305.939C418.41 303.931 419.184 301.995 420.586 300.557C421.988 299.119 423.904 298.295 425.912 298.267C427.92 298.244 429.856 299.019 431.294 300.421C432.732 301.823 433.556 303.738 433.584 305.746L433.885 330.16Z" fill="#091E1D"/>
<path d="M327.808 331.45C327.831 333.458 327.056 335.394 325.654 336.832C324.252 338.27 322.337 339.094 320.329 339.122C318.32 339.145 316.385 338.371 314.947 336.969C313.509 335.567 312.685 333.651 312.657 331.643L312.356 307.229C312.333 305.221 313.107 303.285 314.509 301.847C315.911 300.409 317.826 299.585 319.835 299.557C321.843 299.534 323.779 300.308 325.217 301.71C326.655 303.112 327.479 305.027 327.507 307.036L327.808 331.45Z" fill="#091E1D"/>
<path d="M425.29 312.837C425.319 317.364 423.561 321.72 420.399 324.959C417.236 328.198 412.924 330.059 408.397 330.138L337.477 330.999C332.95 331.023 328.595 329.261 325.359 326.095C322.123 322.928 320.266 318.613 320.193 314.086L312.549 152.6C312.52 148.073 314.277 143.718 317.44 140.479C320.602 137.24 324.915 135.378 329.441 135.299L411.751 134.283C416.278 134.254 420.633 136.011 423.872 139.174C427.111 142.336 428.972 146.649 429.052 151.175L425.29 312.837Z" fill="#FFA65B"/>
<path opacity="0.1" d="M428.643 167.3L429.009 151.245C428.929 146.718 427.067 142.405 423.826 139.243C420.585 136.08 416.228 134.324 411.7 134.355L329.39 135.372C324.864 135.451 320.551 137.312 317.389 140.551C314.226 143.79 312.469 148.146 312.498 152.673L313.25 168.727L428.643 167.3Z" fill="#161826"/>
<path d="M437.966 125.491L302.947 127.111C300.476 127.141 298.497 129.168 298.527 131.639L298.737 149.21C298.767 151.681 300.794 153.66 303.265 153.63L438.285 152.01C440.755 151.98 442.734 149.953 442.705 147.483L442.494 129.911C442.464 127.44 440.437 125.461 437.966 125.491Z" fill="#FFA65B"/>
<path d="M371.347 194.573L386.95 185.203L383.168 195.002L371.347 194.573Z" fill="white"/>
<path d="M365.33 179.745C365.33 179.745 366.599 179.745 368.584 182.689C370.568 185.634 375.01 193.735 375.01 193.735L383.003 190.189L384.809 187.074C384.809 187.074 381.393 180.111 378.641 179.702L365.33 179.745Z" fill="white"/>
<path d="M361.031 181.851C361.031 181.851 363.417 179.188 365.33 180.54C367.43 182.677 369.236 185.083 370.703 187.696L365.094 197.625L354.927 192.017L361.031 181.851Z" fill="white"/>
<path d="M378.44 206.951L379.278 225.11L372.443 217.137L378.44 206.951Z" fill="white"/>
<path d="M394.299 208.779C394.299 208.779 393.72 209.897 390.173 210.241C386.627 210.585 377.45 210.564 377.45 210.564L376.783 219.268L378.674 222.34C378.674 222.34 386.401 222.641 388.109 220.406L394.299 208.779Z" fill="white"/>
<path d="M394.492 203.964C394.492 203.964 395.712 207.317 393.59 208.413C390.71 209.247 387.733 209.695 384.736 209.745L378.654 200.096L388.414 193.821L394.492 203.964Z" fill="white"/>
<path d="M364.663 206.672L348.546 198.227L358.882 196.358L364.663 206.672Z" fill="white"/>
<path d="M355.079 219.525C355.079 219.525 354.412 218.451 355.893 215.226C357.373 212.001 362.04 204.072 362.04 204.072L354.862 199.086H351.273C351.273 199.086 347.104 205.534 348.178 208.198L355.079 219.525Z" fill="white"/>
<path d="M359.14 222.06C359.14 222.06 355.616 221.415 355.767 219.03C356.504 216.122 357.624 213.326 359.097 210.713L370.509 210.327L371.004 221.932L359.14 222.06Z" fill="white"/>
<path d="M258.456 469.054L326.818 519.322C333.86 524.462 342.061 527.784 350.695 528.994C361.367 530.514 371.212 535.595 378.633 543.413L418.004 584.913L433.564 602.449H446.578C464.353 602.446 481.399 595.385 493.969 582.818C506.54 570.252 513.607 553.208 513.616 535.434L417.186 464.9C410.375 459.919 404.665 453.586 400.413 446.298C396.16 439.01 393.457 430.923 392.471 422.542L391.525 414.591C389.683 398.932 384.47 383.858 376.246 370.406L372.464 364.216C365.607 352.997 360.688 340.704 357.914 327.853L355.915 318.613C355.81 318.161 355.612 317.736 355.334 317.365C355.055 316.994 354.702 316.685 354.298 316.458C353.893 316.232 353.446 316.092 352.984 316.048C352.522 316.005 352.056 316.058 351.616 316.205C349.396 317.026 347.399 318.355 345.783 320.085C344.168 321.815 342.979 323.898 342.311 326.169L341.388 329.349C340.103 333.741 339.452 338.293 339.454 342.868V345.125C339.454 348.788 339.85 352.441 340.635 356.019L347.297 386.387L287.124 364.803C272.285 359.472 256.778 356.225 241.047 355.154L205.737 352.769C205.258 352.73 204.776 352.791 204.322 352.948C203.868 353.106 203.451 353.357 203.099 353.684C202.747 354.012 202.467 354.409 202.278 354.851C202.088 355.293 201.993 355.77 201.998 356.25C200.246 357.932 199.076 360.129 198.659 362.522C198.242 364.915 198.599 367.378 199.678 369.554L200.839 371.918C201.69 373.645 202.963 375.129 204.542 376.231C206.12 377.333 207.951 378.018 209.865 378.222L251.172 382.521C257.332 383.179 263.316 384.979 268.816 387.829L252.699 386.755H230.941C226.018 386.753 221.221 388.302 217.229 391.182C214.906 392.857 213.27 395.319 212.626 398.109C211.981 400.9 212.372 403.829 213.725 406.354C213.725 407.215 213.897 408.068 214.232 408.861C214.566 409.655 215.057 410.374 215.674 410.975C216.291 411.576 217.022 412.047 217.824 412.361C218.626 412.675 219.483 412.825 220.344 412.802L249.293 411.771C253.51 411.622 257.731 411.874 261.901 412.523L267.702 413.426L240.301 419.079L222.764 423.248C220.939 423.687 219.236 424.531 217.781 425.717C216.326 426.902 215.156 428.4 214.357 430.099C213.561 431.778 213.147 433.613 213.147 435.471C213.147 437.33 213.561 439.165 214.357 440.844C215.138 442.468 216.261 443.904 217.648 445.053C219.036 446.203 220.655 447.04 222.396 447.505L242.403 452.835C244.123 453.293 245.595 454.403 246.509 455.93C249.576 461.06 253.639 465.525 258.458 469.06L258.456 469.054Z" fill="#9D6B4F"/>
<path opacity="0.29" d="M380.74 510.596C366.664 524.672 349.556 527.79 343.934 527.66C346.156 528.287 348.418 528.767 350.703 529.099C361.375 530.619 371.22 535.701 378.641 543.519L403.247 569.458C402.128 567.544 388.933 553.554 382.143 532.686C377.171 517.537 385.876 505.352 380.74 510.596Z" fill="#D5AE99"/>
<path d="M339.369 423.687C344.06 411.832 346.712 399.268 347.212 386.529L333.093 381.372C337.736 386.028 336.404 411.65 339.369 423.687Z" fill="#9D6B4F"/>
<path d="M218.805 379.202L231.484 380.556C231.742 371.961 232.537 363.363 232.858 354.768L217.17 353.694C222.868 359.644 222.351 371.465 218.805 379.202Z" fill="#9D6B4F"/>
<path d="M334.366 462.564C332.024 458.997 300.561 448.917 288.246 445.112C275.932 441.307 237.179 423.085 229.936 421.538L221.576 423.687C219.909 424.256 218.38 425.172 217.091 426.373C215.801 427.574 214.78 429.034 214.094 430.657C213.408 432.28 213.073 434.03 213.111 435.792C213.149 437.554 213.558 439.288 214.313 440.88C215.097 442.506 216.223 443.942 217.614 445.092C219.005 446.242 220.628 447.078 222.372 447.542L242.359 452.872C244.078 453.33 245.551 454.44 246.464 455.967C249.519 461.047 253.551 465.471 258.328 468.981L309.454 506.568C307.174 500.258 314.525 470.342 334.366 462.564Z" fill="#9D6B4F"/>
<path opacity="0.6" d="M352.564 336.521C353.467 339.616 354.713 341.249 357.894 341.572C359.2 341.702 360.514 341.752 361.826 341.723C360.249 337.208 358.95 332.6 357.936 327.926L356.088 319.33C350.286 322.681 350.823 330.59 352.564 336.521Z" fill="#FBDBCB"/>
<g filter="url(#filter0_d_103_1383)">
<path d="M325.337 245.313H237.781C233.844 245.313 230.069 246.877 227.285 249.661C224.501 252.445 222.937 256.221 222.937 260.158V460.024C222.937 461.973 223.321 463.903 224.067 465.704C224.813 467.505 225.906 469.142 227.285 470.52C228.663 471.899 230.3 472.992 232.101 473.738C233.902 474.484 235.832 474.868 237.781 474.868H325.337C327.287 474.868 329.217 474.484 331.018 473.738C332.819 472.992 334.456 471.899 335.834 470.52C337.212 469.142 338.306 467.505 339.052 465.704C339.798 463.903 340.182 461.973 340.182 460.024V260.158C340.182 256.221 338.618 252.445 335.834 249.661C333.05 246.877 329.274 245.313 325.337 245.313ZM321.474 253.041C321.468 253.429 321.309 253.8 321.031 254.071C320.754 254.343 320.38 254.494 319.991 254.491C319.602 254.489 319.231 254.332 318.957 254.056C318.683 253.781 318.529 253.408 318.529 253.019C318.529 252.631 318.683 252.258 318.957 251.982C319.231 251.706 319.602 251.55 319.991 251.547C320.38 251.544 320.754 251.695 321.031 251.967C321.309 252.239 321.468 252.609 321.474 252.998V253.041ZM264.129 256.595H298.516C299.162 256.614 299.775 256.883 300.225 257.347C300.676 257.81 300.927 258.431 300.927 259.077C300.927 259.723 300.676 260.344 300.225 260.807C299.775 261.271 299.162 261.54 298.516 261.559H264.129C263.483 261.54 262.87 261.271 262.42 260.807C261.969 260.344 261.717 259.723 261.717 259.077C261.717 258.431 261.969 257.81 262.42 257.347C262.87 256.883 263.483 256.614 264.129 256.595ZM287.962 464.524H274.789C273.946 464.574 273.102 464.452 272.308 464.165C271.515 463.877 270.788 463.43 270.173 462.852C269.559 462.273 269.069 461.574 268.734 460.799C268.4 460.024 268.227 459.189 268.227 458.345C268.227 457.501 268.4 456.665 268.734 455.89C269.069 455.115 269.559 454.417 270.173 453.838C270.788 453.26 271.515 452.813 272.308 452.525C273.102 452.238 273.946 452.115 274.789 452.166H287.962C288.804 452.115 289.649 452.238 290.442 452.525C291.236 452.813 291.963 453.26 292.577 453.838C293.192 454.417 293.682 455.115 294.016 455.89C294.351 456.665 294.524 457.501 294.524 458.345C294.524 459.189 294.351 460.024 294.016 460.799C293.682 461.574 293.192 462.273 292.577 462.852C291.963 463.43 291.236 463.877 290.442 464.165C289.649 464.452 288.804 464.574 287.962 464.524ZM332.902 445.612H230.259V269.715H332.861L332.902 445.612Z" fill="white"/>
</g>
<path opacity="0.33" d="M294.089 458.309C294.089 459.941 293.446 461.508 292.3 462.67C291.154 463.832 289.596 464.497 287.964 464.519H274.791C273.948 464.57 273.104 464.448 272.31 464.16C271.517 463.872 270.79 463.426 270.176 462.847C269.561 462.268 269.071 461.57 268.736 460.795C268.402 460.02 268.229 459.185 268.229 458.34C268.229 457.496 268.402 456.661 268.736 455.886C269.071 455.111 269.561 454.413 270.176 453.834C270.79 453.255 271.517 452.808 272.31 452.521C273.104 452.233 273.948 452.111 274.791 452.162H287.964C289.587 452.179 291.138 452.832 292.284 453.982C293.429 455.132 294.078 456.686 294.089 458.309Z" fill="#262C38"/>
<path opacity="0.3" d="M261.636 259.023C261.636 258.696 261.701 258.373 261.826 258.072C261.952 257.771 262.136 257.497 262.368 257.268C262.6 257.038 262.875 256.856 263.177 256.734C263.479 256.611 263.803 256.549 264.129 256.552H298.516C298.848 256.543 299.178 256.6 299.487 256.72C299.797 256.841 300.079 257.022 300.317 257.253C300.555 257.485 300.744 257.762 300.874 258.067C301.003 258.373 301.07 258.702 301.07 259.034C301.07 259.366 301.003 259.695 300.874 260C300.744 260.306 300.555 260.583 300.317 260.815C300.079 261.046 299.797 261.227 299.487 261.348C299.178 261.468 298.848 261.525 298.516 261.516H264.129C263.468 261.516 262.834 261.253 262.366 260.786C261.899 260.318 261.636 259.684 261.636 259.023Z" fill="white"/>
<path opacity="0.33" d="M321.468 260.1C323.426 260.1 325.014 258.512 325.014 256.554C325.014 254.595 323.426 253.007 321.468 253.007C319.509 253.007 317.921 254.595 317.921 256.554C317.921 258.512 319.509 260.1 321.468 260.1Z" fill="#262C38"/>
<path opacity="0.33" d="M332.857 269.705H230.259V445.586H332.857V269.705Z" fill="#262C38"/>
<path opacity="0.3" d="M321.468 260.1C323.426 260.1 325.014 258.512 325.014 256.554C325.014 254.595 323.426 253.007 321.468 253.007C319.509 253.007 317.921 254.595 317.921 256.554C317.921 258.512 319.509 260.1 321.468 260.1Z" fill="white"/>
<path opacity="0.3" d="M300.966 259.023C300.969 259.349 300.907 259.673 300.784 259.975C300.662 260.277 300.48 260.552 300.25 260.784C300.021 261.016 299.747 261.2 299.446 261.326C299.145 261.451 298.822 261.516 298.495 261.516H264.109C263.777 261.525 263.447 261.468 263.137 261.348C262.828 261.227 262.546 261.046 262.308 260.815C262.069 260.583 261.88 260.306 261.751 260C261.622 259.695 261.555 259.366 261.555 259.034C261.555 258.702 261.622 258.373 261.751 258.067C261.88 257.762 262.069 257.485 262.308 257.253C262.546 257.022 262.828 256.841 263.137 256.72C263.447 256.6 263.777 256.543 264.109 256.552H298.495C298.821 256.548 299.144 256.609 299.446 256.732C299.747 256.855 300.021 257.036 300.251 257.267C300.482 257.497 300.664 257.771 300.786 258.072C300.909 258.374 300.97 258.697 300.966 259.023Z" fill="#262C38"/>
<path opacity="0.3" d="M294.089 458.309C294.089 459.941 293.446 461.508 292.3 462.67C291.154 463.832 289.596 464.497 287.964 464.519H274.791C273.948 464.57 273.104 464.448 272.31 464.16C271.517 463.872 270.79 463.426 270.176 462.847C269.561 462.268 269.071 461.57 268.736 460.795C268.402 460.02 268.229 459.185 268.229 458.34C268.229 457.496 268.402 456.661 268.736 455.886C269.071 455.111 269.561 454.413 270.176 453.834C270.79 453.255 271.517 452.808 272.31 452.521C273.104 452.233 273.948 452.111 274.791 452.162H287.964C289.587 452.179 291.138 452.832 292.284 453.982C293.429 455.132 294.078 456.686 294.089 458.309Z" fill="#4E4E4E"/>
<path d="M260.63 475.372C261.264 473.952 262.247 472.715 263.487 471.776C264.727 470.837 266.184 470.226 267.722 470L269.98 469.676C275.195 468.913 280.478 468.733 285.733 469.139L289.149 469.398C290.538 469.502 291.888 469.901 293.111 470.567C294.334 471.233 295.401 472.151 296.242 473.261C297.321 474.689 297.99 476.385 298.176 478.165C298.361 479.945 298.057 481.742 297.296 483.362C296.597 484.844 295.539 486.127 294.218 487.096C292.897 488.064 291.354 488.687 289.731 488.907L287.323 489.23C281.622 489.999 275.849 490.072 270.13 489.446L268.503 489.273C266.66 489.072 264.921 488.32 263.51 487.117C262.1 485.914 261.084 484.314 260.595 482.526L260.316 481.495C259.724 479.476 259.838 477.315 260.64 475.37L260.63 475.372Z" fill="#9D6B4F"/>
<path opacity="0.6" d="M297.139 478.577L296.936 477.03C296.537 475.461 295.563 474.099 294.207 473.216C292.85 472.332 291.211 471.99 289.615 472.259L286.606 472.583C285.368 472.674 284.161 473.01 283.055 473.57C281.948 474.131 280.963 474.905 280.157 475.848C279.372 476.785 278.942 477.968 278.942 479.19C278.942 480.413 279.372 481.596 280.157 482.532C280.963 483.476 281.948 484.25 283.055 484.811C284.161 485.371 285.368 485.707 286.606 485.798L289.615 486.122C291.211 486.39 292.85 486.049 294.207 485.165C295.563 484.281 296.537 482.92 296.936 481.351L297.139 479.804C297.191 479.396 297.191 478.984 297.139 478.577Z" fill="#FBDBCB"/>
<path d="M217.237 426.16L215.088 428.179C213.845 429.341 212.892 430.779 212.306 432.376C211.72 433.974 211.517 435.686 211.714 437.377L211.864 438.688C212.237 441.95 213.489 445.049 215.488 447.654C217.487 450.258 220.157 452.27 223.211 453.474C224.153 453.845 225.184 453.926 226.172 453.704C227.16 453.483 228.058 452.97 228.751 452.231L229.954 450.942C232.184 448.554 233.508 445.461 233.697 442.199C233.885 438.937 232.926 435.713 230.985 433.084L229.029 430.418C227.066 427.761 224.213 425.9 220.991 425.174C220.331 425.02 219.644 425.03 218.989 425.203C218.333 425.375 217.73 425.704 217.231 426.162L217.237 426.16Z" fill="#9D6B4F"/>
<path opacity="0.6" d="M231.055 438.28C230.851 437.42 226.542 434.756 226.542 434.756C225.514 434.059 224.356 433.577 223.138 433.337C221.919 433.097 220.665 433.104 219.449 433.359C218.205 433.626 217.088 434.306 216.28 435.29C215.472 436.273 215.021 437.501 215 438.774C214.967 440.018 215.194 441.256 215.668 442.407C216.142 443.558 216.852 444.598 217.751 445.458C219.256 446.898 223.445 450.53 224.779 449.757C226.113 448.984 225.338 446.662 225.918 444.685C227.079 440.872 231.313 439.421 231.055 438.28Z" fill="#FBDBCB"/>
<path d="M217.237 391.279L215.088 393.298C213.845 394.46 212.892 395.898 212.306 397.495C211.721 399.093 211.518 400.805 211.714 402.496L211.864 403.807C212.237 407.069 213.49 410.168 215.488 412.773C217.487 415.377 220.157 417.389 223.211 418.593C224.154 418.965 225.187 419.046 226.176 418.823C227.165 418.601 228.064 418.086 228.757 417.346L229.961 416.057C232.191 413.669 233.515 410.576 233.703 407.314C233.891 404.052 232.932 400.827 230.991 398.199L229.035 395.535C227.072 392.878 224.219 391.017 220.997 390.291C220.337 390.137 219.65 390.147 218.995 390.32C218.34 390.492 217.736 390.821 217.237 391.279Z" fill="#9D6B4F"/>
<path opacity="0.6" d="M228.95 404.69C228.95 403.876 225.039 400.972 225.039 400.972C224.148 400.235 223.119 399.683 222.012 399.347C220.905 399.011 219.742 398.899 218.591 399.016C217.402 399.154 216.294 399.689 215.448 400.536C214.601 401.382 214.066 402.49 213.928 403.679C213.795 404.832 213.901 406 214.241 407.11C214.582 408.22 215.148 409.247 215.905 410.127C217.174 411.61 220.785 415.414 222.095 414.877C223.405 414.341 222.89 412.031 223.62 410.235C224.995 406.774 229.1 405.765 228.95 404.69Z" fill="#FBDBCB"/>
<path d="M342.055 410.191C342.055 410.191 343.043 452.85 354.069 463.123C365.094 473.396 371.132 476.554 371.132 476.554C371.132 476.554 344.826 464.038 342.055 410.191Z" fill="#D5AE99"/>
<path d="M43.17 14.1777H12.6676V44.6801H43.17V14.1777Z" fill="white"/>
<path fill-rule="evenodd" clip-rule="evenodd" d="M27.2924 39.5843C28.8196 39.587 30.3323 39.2882 31.7437 38.705C33.1551 38.1218 34.4376 37.2658 35.5174 36.1859C36.5973 35.106 37.4534 33.8236 38.0366 32.4122C38.6197 31.0007 38.9186 29.4881 38.9159 27.9609C38.9379 24.8328 37.7333 21.8206 35.5604 19.5701C33.3876 17.3197 30.4194 16.0103 27.2924 15.9226C25.7653 15.9199 24.2526 16.2188 22.8412 16.8019C21.4297 17.3851 20.1473 18.2412 19.0675 19.3211C17.9876 20.4009 17.1315 21.6834 16.5483 23.0948C15.9651 24.5062 15.6663 26.0189 15.669 27.5461C15.7191 30.6524 16.9474 33.6237 19.1053 35.8587C21.2633 38.0937 24.1898 39.4254 27.2924 39.5843ZM7.78311 8.03673C12.9614 2.88197 19.9729 -0.00828994 27.2794 1.78606e-05C34.586 0.00832566 41.5909 2.91453 46.7575 8.08105C51.924 13.2476 54.8302 20.2525 54.8385 27.5591C54.8468 34.8656 51.9565 41.8771 46.8018 47.0554L27.2924 66.5647L7.78311 47.0554C2.78587 41.7891 0 34.806 0 27.5461C0 20.2861 2.78587 13.303 7.78311 8.03673Z" fill="#01A886"/>
<g filter="url(#filter1_d_103_1383)">
<path d="M312.085 410.709C314.286 410.709 316.437 411.362 318.267 412.584C320.097 413.807 321.523 415.545 322.365 417.578C323.208 419.611 323.428 421.849 322.999 424.007C322.569 426.166 321.509 428.148 319.953 429.704C318.397 431.261 316.414 432.32 314.256 432.75C312.097 433.179 309.86 432.959 307.827 432.117C305.794 431.274 304.056 429.848 302.833 428.018C301.61 426.188 300.958 424.037 300.958 421.836C300.958 418.885 302.13 416.055 304.217 413.968C306.304 411.881 309.134 410.709 312.085 410.709V410.709Z" fill="#01A886"/>
</g>
<path d="M308.494 427.341H307.058V425.905" stroke="white" stroke-width="0.5" stroke-linejoin="round"/>
<path d="M307.121 418.245V416.809H308.557" stroke="white" stroke-width="0.5" stroke-linejoin="round"/>
<path d="M317.59 425.903V427.339H316.154" stroke="white" stroke-width="0.5" stroke-linejoin="round"/>
<path d="M316.152 416.872H317.588V418.307" stroke="white" stroke-width="0.5" stroke-linejoin="round"/>
<path d="M312.152 425.096C313.837 425.096 315.202 423.73 315.202 422.046C315.202 420.361 313.837 418.996 312.152 418.996C310.468 418.996 309.102 420.361 309.102 422.046C309.102 423.73 310.468 425.096 312.152 425.096Z" fill="white"/>
<defs>
<filter id="filter0_d_103_1383" x="218.937" y="245.313" width="125.245" height="237.555" filterUnits="userSpaceOnUse" color-interpolation-filters="sRGB">
<feFlood flood-opacity="0" result="BackgroundImageFix"/>
<feColorMatrix in="SourceAlpha" type="matrix" values="0 0 0 0 0 0 0 0 0 0 0 0 0 0 0 0 0 0 127 0" result="hardAlpha"/>
<feOffset dy="4"/>
<feGaussianBlur stdDeviation="2"/>
<feComposite in2="hardAlpha" operator="out"/>
<feColorMatrix type="matrix" values="0 0 0 0 0 0 0 0 0 0 0 0 0 0 0 0 0 0 0.1 0"/>
<feBlend mode="normal" in2="BackgroundImageFix" result="effect1_dropShadow_103_1383"/>
<feBlend mode="normal" in="SourceGraphic" in2="effect1_dropShadow_103_1383" result="shape"/>
</filter>
<filter id="filter1_d_103_1383" x="291.958" y="409.709" width="40.2545" height="40.2546" filterUnits="userSpaceOnUse" color-interpolation-filters="sRGB">
<feFlood flood-opacity="0" result="BackgroundImageFix"/>
<feColorMatrix in="SourceAlpha" type="matrix" values="0 0 0 0 0 0 0 0 0 0 0 0 0 0 0 0 0 0 127 0" result="hardAlpha"/>
<feOffset dy="8"/>
<feGaussianBlur stdDeviation="4.5"/>
<feColorMatrix type="matrix" values="0 0 0 0 0 0 0 0 0 0 0 0 0 0 0 0 0 0 0.161 0"/>
<feBlend mode="normal" in2="BackgroundImageFix" result="effect1_dropShadow_103_1383"/>
<feBlend mode="normal" in="SourceGraphic" in2="effect1_dropShadow_103_1383" result="shape"/>
</filter>
</defs>
</svg>
